<svg width="246" height="147" viewBox="0 0 246 147" fill="none" xmlns="http://www.w3.org/2000/svg">
<path d="M47.7177 25.7226H204.172C207.277 25.7226 210.254 26.9578 212.449 29.1566C214.644 31.3553 215.877 34.3375 215.877 37.447V133.158H35.9883V37.447C35.9883 35.9052 36.2918 34.3786 36.8816 32.9546C37.4714 31.5305 38.3357 30.2369 39.4252 29.1479C40.5147 28.0589 41.808 27.1958 43.2309 26.608C44.6538 26.0202 46.1785 25.7193 47.7177 25.7226Z" fill="white"/>
<path d="M215.876 133.525H35.9874C35.8902 133.525 35.7971 133.486 35.7284 133.418C35.6597 133.349 35.6211 133.256 35.6211 133.158V37.4469C35.6232 34.2386 36.8966 31.1623 39.1615 28.8937C41.4263 26.625 44.4975 25.3496 47.7005 25.3474H204.171C207.374 25.3517 210.444 26.6279 212.708 28.896C214.972 31.1642 216.246 34.2392 216.251 37.4469V133.158C216.249 133.256 216.208 133.35 216.138 133.418C216.068 133.487 215.974 133.525 215.876 133.525ZM36.3781 132.783H215.502V37.4469C215.5 34.4375 214.305 31.552 212.181 29.4241C210.056 27.2961 207.176 26.0997 204.171 26.0975H47.7168C44.7117 26.0997 41.8301 27.2958 39.7044 29.4236C37.5787 31.5513 36.3824 34.4368 36.3781 37.4469V132.783Z" fill="#231F20"/>
<path d="M204.636 35.3516H47.2539V133.158H204.636V35.3516Z" fill="#703AA3"/>
<path d="M230.872 133.574H21.0122C20.9492 133.592 20.8829 133.595 20.8185 133.583C20.7541 133.571 20.6933 133.544 20.641 133.505C20.5887 133.465 20.5463 133.414 20.5171 133.355C20.4879 133.297 20.4727 133.232 20.4727 133.166C20.4727 133.101 20.4879 133.036 20.5171 132.977C20.5463 132.919 20.5887 132.867 20.641 132.828C20.6933 132.788 20.7541 132.762 20.8185 132.75C20.8829 132.738 20.9492 132.741 21.0122 132.759H230.872C230.935 132.741 231.001 132.738 231.065 132.75C231.13 132.762 231.191 132.788 231.243 132.828C231.295 132.867 231.338 132.919 231.367 132.977C231.396 133.036 231.411 133.101 231.411 133.166C231.411 133.232 231.396 133.297 231.367 133.355C231.338 133.414 231.295 133.465 231.243 133.505C231.191 133.544 231.13 133.571 231.065 133.583C231.001 133.595 230.935 133.592 230.872 133.574Z" fill="#231F20"/>
<path d="M17.2988 133.158H234.582C234.582 136.618 233.21 139.936 230.767 142.383C228.325 144.829 225.012 146.204 221.558 146.204H30.2736C26.8196 146.204 23.5069 144.829 21.0645 142.383C18.6221 139.936 17.25 136.618 17.25 133.158H17.2988Z" fill="white"/>
<path d="M221.584 146.554H30.2991C26.7549 146.548 23.3579 145.134 20.8525 142.623C18.3472 140.112 16.9379 136.708 16.9336 133.158C16.9336 133.06 16.9719 132.966 17.0404 132.896C17.1088 132.826 17.202 132.785 17.2999 132.783H234.583C234.682 132.785 234.776 132.825 234.845 132.895C234.915 132.965 234.955 133.059 234.957 133.158C234.953 136.71 233.543 140.115 231.036 142.626C228.528 145.137 225.129 146.55 221.584 146.554ZM17.6825 133.509C17.7819 136.797 19.1552 139.918 21.5117 142.21C23.8681 144.502 27.0227 145.785 30.3072 145.788H221.592C224.876 145.783 228.029 144.499 230.385 142.208C232.741 139.916 234.115 136.797 234.217 133.509H17.6825Z" fill="#231F20"/>
<path d="M143.561 133.158H108.324V136.411H143.561V133.158Z" fill="black"/>
<path d="M54.6096 45.0948C56.0617 45.0948 57.2388 43.9157 57.2388 42.4613C57.2388 41.0068 56.0617 39.8278 54.6096 39.8278C53.1576 39.8278 51.9805 41.0068 51.9805 42.4613C51.9805 43.9157 53.1576 45.0948 54.6096 45.0948Z" fill="#231F20"/>
<path d="M63.5159 45.0948C64.9679 45.0948 66.145 43.9157 66.145 42.4613C66.145 41.0068 64.9679 39.8278 63.5159 39.8278C62.0638 39.8278 60.8867 41.0068 60.8867 42.4613C60.8867 43.9157 62.0638 45.0948 63.5159 45.0948Z" fill="white"/>
<path d="M72.4299 45.0948C73.882 45.0948 75.0591 43.9157 75.0591 42.4613C75.0591 41.0068 73.882 39.8278 72.4299 39.8278C70.9779 39.8278 69.8008 41.0068 69.8008 42.4613C69.8008 43.9157 70.9779 45.0948 72.4299 45.0948Z" fill="white"/>
<path d="M97.5566 82.7465C97.3799 82.7476 97.2047 82.7136 97.0412 82.6465C96.8777 82.5793 96.7292 82.4802 96.6042 82.3551C96.3547 82.1005 96.2148 81.758 96.2148 81.4012C96.2148 81.0444 96.3547 80.7019 96.6042 80.4473L106.811 70.2231C107.064 69.9711 107.406 69.83 107.763 69.8308C108.119 69.8316 108.461 69.9741 108.712 70.2271C108.964 70.4801 109.105 70.8228 109.104 71.1799C109.103 71.5369 108.961 71.879 108.708 72.1309L98.5008 82.3551C98.3768 82.4793 98.2296 82.5777 98.0675 82.6449C97.9055 82.712 97.7319 82.7466 97.5566 82.7465Z" fill="white"/>
<path d="M107.762 82.7465C107.406 82.747 107.063 82.6063 106.81 82.3551L96.6027 72.1309C96.3501 71.879 96.2078 71.5369 96.207 71.1799C96.2063 70.8228 96.3471 70.4801 96.5986 70.2271C96.8501 69.9741 97.1917 69.8316 97.5481 69.8308C97.9045 69.83 98.2467 69.9711 98.4993 70.2231L108.707 80.4473C108.895 80.6349 109.024 80.8744 109.076 81.1353C109.129 81.3962 109.103 81.6668 109.002 81.913C108.901 82.1591 108.729 82.3697 108.508 82.5181C108.288 82.6664 108.028 82.7459 107.762 82.7465Z" fill="white"/>
<path d="M144.165 82.7465C143.898 82.7476 143.638 82.6692 143.416 82.5215C143.194 82.3737 143.021 82.1632 142.919 81.9167C142.817 81.6703 142.79 81.3989 142.843 81.1373C142.895 80.8756 143.024 80.6354 143.212 80.4473L153.42 70.2231C153.545 70.0983 153.693 69.9995 153.856 69.9322C154.02 69.8649 154.194 69.8304 154.371 69.8308C154.547 69.8312 154.722 69.8664 154.885 69.9344C155.048 70.0024 155.196 70.1019 155.32 70.2271C155.445 70.3524 155.544 70.501 155.611 70.6645C155.678 70.828 155.712 71.0031 155.712 71.1799C155.712 71.3567 155.676 71.5316 155.609 71.6948C155.541 71.858 155.441 72.0062 155.316 72.1309L145.109 82.3551C144.985 82.4793 144.838 82.5777 144.676 82.6449C144.514 82.712 144.34 82.7466 144.165 82.7465Z" fill="white"/>
<path d="M154.333 82.7465C154.156 82.7476 153.981 82.7136 153.817 82.6465C153.654 82.5793 153.505 82.4802 153.38 82.3551L143.173 72.1309C143.048 72.0062 142.949 71.858 142.881 71.6948C142.813 71.5316 142.778 71.3567 142.777 71.1799C142.777 71.0031 142.811 70.828 142.879 70.6645C142.946 70.501 143.044 70.3524 143.169 70.2271C143.293 70.1019 143.441 70.0024 143.604 69.9344C143.767 69.8664 143.942 69.8312 144.118 69.8308C144.295 69.8304 144.47 69.8649 144.633 69.9322C144.796 69.9995 144.945 70.0983 145.07 70.2231L155.277 80.4473C155.465 80.6349 155.594 80.8744 155.646 81.1353C155.699 81.3962 155.673 81.6668 155.572 81.913C155.471 82.1591 155.299 82.3697 155.079 82.5181C154.858 82.6664 154.598 82.7459 154.333 82.7465Z" fill="white"/>
<path d="M204.523 49.3263H47.3601C47.2522 49.3263 47.1487 49.2834 47.0723 49.2069C46.996 49.1305 46.9531 49.0268 46.9531 48.9186C46.9531 48.8105 46.996 48.7068 47.0723 48.6304C47.1487 48.5539 47.2522 48.511 47.3601 48.511H204.523C204.631 48.511 204.734 48.5539 204.811 48.6304C204.887 48.7068 204.93 48.8105 204.93 48.9186C204.93 49.0268 204.887 49.1305 204.811 49.2069C204.734 49.2834 204.631 49.3263 204.523 49.3263Z" fill="white"/>
<path d="M79.5266 105.78C79.1189 105.831 78.7069 105.726 78.3733 105.486C78.0396 105.246 77.8089 104.888 77.7276 104.485C77.6462 104.081 77.7201 103.662 77.9345 103.311C78.1489 102.96 78.4879 102.703 78.8835 102.592C93.7643 96.2524 109.769 92.985 125.94 92.985C142.11 92.985 158.115 96.2524 172.996 102.592C173.196 102.676 173.378 102.8 173.531 102.955C173.684 103.11 173.804 103.293 173.886 103.495C173.968 103.697 174.01 103.913 174.009 104.13C174.007 104.348 173.963 104.564 173.879 104.765C173.794 104.965 173.671 105.147 173.517 105.301C173.362 105.454 173.178 105.575 172.977 105.657C172.776 105.739 172.56 105.781 172.343 105.779C172.125 105.778 171.91 105.734 171.71 105.649C157.235 99.4853 141.668 96.3083 125.94 96.3083C110.211 96.3083 94.6443 99.4853 80.1696 105.649C79.9652 105.732 79.7472 105.777 79.5266 105.78Z" fill="white"/>
<path d="M57.3781 76.9658H6.34174C3.14995 76.9658 0.5625 79.5576 0.5625 82.7547V110.199C0.5625 113.396 3.14995 115.987 6.34174 115.987H57.3781C60.5699 115.987 63.1574 113.396 63.1574 110.199V82.7547C63.1574 79.5576 60.5699 76.9658 57.3781 76.9658Z" fill="white"/>
<path d="M57.387 116.395H6.34248C4.70245 116.393 3.13021 115.739 1.97053 114.578C0.810855 113.416 0.158404 111.841 0.15625 110.199V82.7547C0.158404 81.112 0.810855 79.5371 1.97053 78.3755C3.13021 77.2139 4.70245 76.5604 6.34248 76.5582H57.387C59.027 76.5604 60.5993 77.2139 61.7589 78.3755C62.9186 79.5371 63.5711 81.112 63.5732 82.7547V110.199C63.5711 111.841 62.9186 113.416 61.7589 114.578C60.5993 115.739 59.027 116.393 57.387 116.395ZM6.34248 77.3736C4.91833 77.3757 3.55313 77.9433 2.5461 78.952C1.53907 79.9607 0.97238 81.3282 0.970227 82.7547V110.199C0.97238 111.625 1.53907 112.993 2.5461 114.001C3.55313 115.01 4.91833 115.578 6.34248 115.58H57.387C58.8111 115.578 60.1763 115.01 61.1834 114.001C62.1904 112.993 62.7571 111.625 62.7592 110.199V82.7547C62.7571 81.3282 62.1904 79.9607 61.1834 78.952C60.1763 77.9433 58.8111 77.3757 57.387 77.3736H6.34248Z" fill="#D1D3D4"/>
<path d="M240.766 56.4359H190.723C188.147 56.4359 186.059 58.5276 186.059 61.1077V78.5639C186.059 81.1441 188.147 83.2357 190.723 83.2357H240.766C243.342 83.2357 245.43 81.1441 245.43 78.5639V61.1077C245.43 58.5276 243.342 56.4359 240.766 56.4359Z" fill="white"/>
<path d="M240.775 83.6353H190.723C189.379 83.6332 188.091 83.0973 187.14 82.1452C186.189 81.1931 185.654 79.9023 185.652 78.5558V61.1078C185.654 59.7613 186.189 58.4706 187.14 57.5184C188.091 56.5663 189.379 56.0305 190.723 56.0283H240.775C242.119 56.0305 243.408 56.5663 244.358 57.5184C245.309 58.4706 245.844 59.7613 245.846 61.1078V78.5558C245.844 79.9023 245.309 81.1931 244.358 82.1452C243.408 83.0973 242.119 83.6332 240.775 83.6353ZM190.723 56.8436C189.594 56.8436 188.512 57.2929 187.713 58.0926C186.915 58.8923 186.466 59.9769 186.466 61.1078V78.5558C186.466 79.6867 186.915 80.7714 187.713 81.571C188.512 82.3707 189.594 82.82 190.723 82.82H240.775C241.904 82.82 242.987 82.3707 243.785 81.571C244.583 80.7714 245.032 79.6867 245.032 78.5558V61.1078C245.032 59.9769 244.583 58.8923 243.785 58.0926C242.987 57.2929 241.904 56.8436 240.775 56.8436H190.723Z" fill="#D1D3D4"/>
<path d="M38.4934 26.1302C38.4077 26.1309 38.3244 26.1021 38.2573 26.0487C38.1715 25.9837 38.1142 25.8879 38.0975 25.7814C38.0808 25.6749 38.106 25.5661 38.1678 25.4779C39.6248 23.4804 41.4237 20.586 40.0807 18.2867C40.0393 18.2131 39.9931 18.1423 39.9423 18.0748C38.4624 19.8653 36.7032 21.4044 34.7328 22.6324C33.6903 23.3883 32.4078 23.7363 31.1269 23.6108C30.8549 23.5556 30.5969 23.4454 30.3688 23.287C30.1407 23.1286 29.9472 22.9253 29.8001 22.6895C29.6133 22.3519 29.4974 21.9795 29.4596 21.5953C29.4218 21.2111 29.4629 20.8232 29.5803 20.4555C29.6476 20.1938 29.7346 19.9376 29.8408 19.6891C28.1287 21.4044 26.1929 22.8799 24.086 24.0756C23.6306 24.3691 23.0969 24.5169 22.5557 24.4995C22.1209 24.4091 21.7272 24.1798 21.4336 23.8461C21.1401 23.5123 20.9626 23.0922 20.9278 22.6487C20.8822 21.855 21.0509 21.0636 21.4162 20.3577C22.8484 17.2547 25.0692 14.583 27.8562 12.6098C30.6432 10.6367 33.8987 9.43128 37.2969 9.1143C37.9024 7.59201 37.9855 5.91123 37.5329 4.33648C37.3112 3.56963 36.8946 2.87352 36.3239 2.31618C35.7532 1.75884 35.0479 1.35933 34.277 1.1567C32.8053 0.980969 31.3154 1.26578 30.0118 1.97203C22.9949 5.17087 17.2596 10.6457 13.7322 17.5122C13.4587 17.9439 13.312 18.444 13.3089 18.9553C13.3224 19.0706 13.3588 19.182 13.4162 19.2828C13.4735 19.3837 13.5505 19.472 13.6427 19.5423C13.6901 19.5837 13.7461 19.6139 13.8067 19.6308C13.8672 19.6477 13.9308 19.6509 13.9927 19.6402C14.1006 19.6196 14.2123 19.6429 14.3031 19.7048C14.3939 19.7667 14.4565 19.8623 14.477 19.9704C14.4975 20.0785 14.4743 20.1904 14.4125 20.2813C14.3506 20.3723 14.2553 20.435 14.1473 20.4555C13.9694 20.4959 13.7848 20.4971 13.6063 20.4591C13.4279 20.4211 13.2598 20.3448 13.1136 20.2354C12.758 19.9542 12.527 19.5442 12.4705 19.0939C12.4487 18.4211 12.6272 17.7569 12.9833 17.186C16.6008 10.1458 22.4826 4.53296 29.678 1.25454C31.0943 0.618584 32.763 -0.00106454 34.4235 0.341373C35.3474 0.566441 36.196 1.03057 36.8845 1.68733C37.573 2.34409 38.0773 3.17045 38.3469 4.08373C38.8126 5.71842 38.7528 7.45848 38.1759 9.05723C38.7132 9.05723 39.2504 9.05723 39.8039 9.05723C40.3269 9.0604 40.8412 9.19198 41.3016 9.44043C42.3598 10.1008 42.4168 11.5032 42.3598 12.2778C42.1934 14.1144 41.5354 15.8721 40.4551 17.3654C40.5782 17.5172 40.6898 17.678 40.7888 17.8465C42.3679 20.537 40.4307 23.7494 38.8353 25.9345C38.8001 25.994 38.75 26.0433 38.6901 26.0776C38.6302 26.1119 38.5624 26.13 38.4934 26.1302ZM36.9387 9.96224C33.7534 10.3304 30.7164 11.514 28.1203 13.399C25.5242 15.284 23.4564 17.8069 22.1162 20.7246C21.8169 21.3 21.6711 21.9432 21.6929 22.5917C21.7086 22.8581 21.8098 23.1123 21.9814 23.3165C22.153 23.5207 22.3858 23.664 22.6453 23.725C23.0221 23.7217 23.3899 23.6083 23.7034 23.3988C27.0489 21.5807 29.735 18.7596 32.3235 16.0609C33.984 14.2019 35.848 12.2778 36.9387 9.96224ZM36.2631 16.4849C35.8476 16.4836 35.4331 16.5246 35.0259 16.6072C33.9534 16.7991 32.9533 17.28 32.1331 17.9982C31.3128 18.7165 30.7033 19.6449 30.3699 20.6838C30.281 20.9501 30.246 21.2315 30.267 21.5114C30.2879 21.7914 30.3644 22.0644 30.492 22.3145C30.5807 22.4594 30.6991 22.5838 30.8394 22.6794C30.9798 22.775 31.1388 22.8396 31.306 22.8689C32.3663 22.9559 33.4236 22.6674 34.2933 22.0536C36.2354 20.8188 37.9577 19.2673 39.3888 17.4633C38.4957 16.772 37.3913 16.4119 36.2631 16.4441V16.4849ZM36.2631 15.6695C37.5692 15.6333 38.848 16.0478 39.8853 16.8436C40.821 15.4924 41.3826 13.917 41.5133 12.2778C41.5133 11.8049 41.5133 10.6471 40.8377 10.1987C40.4925 10.0226 40.1098 9.93307 39.7225 9.93778C39.0963 9.90109 38.4684 9.90109 37.8422 9.93778C36.7596 12.4898 34.7979 14.5851 33.0316 16.4604C33.6064 16.1787 34.2132 15.9679 34.8386 15.8326C35.2997 15.7161 35.7717 15.6478 36.2468 15.6288L36.2631 15.6695Z" fill="#D1D3D4"/>
<path d="M15.9965 100.24C16.2525 100.24 16.4658 100.325 16.6365 100.496C16.8071 100.656 16.8925 100.864 16.8925 101.12C16.8925 101.365 16.8071 101.573 16.6365 101.744C16.4658 101.915 16.2525 102 15.9965 102H10.8445C10.5991 102 10.3911 101.915 10.2205 101.744C10.0605 101.563 9.98047 101.371 9.98047 101.168C9.98047 100.987 10.0018 100.837 10.0445 100.72C10.0871 100.592 10.1671 100.448 10.2845 100.288L14.0925 95.36H10.9885C10.7325 95.36 10.5191 95.2747 10.3485 95.104C10.1778 94.9334 10.0925 94.72 10.0925 94.464C10.0925 94.2187 10.1778 94.016 10.3485 93.856C10.5191 93.6854 10.7325 93.6 10.9885 93.6H15.9165C16.1511 93.6 16.3485 93.6854 16.5085 93.856C16.6791 94.016 16.7645 94.2187 16.7645 94.464C16.7645 94.624 16.7485 94.7627 16.7165 94.88C16.6845 94.9867 16.6098 95.1147 16.4925 95.264L12.6525 100.24H15.9965Z" fill="black"/>
<path d="M27.0585 91.744C27.0585 91.9467 26.9838 92.1494 26.8345 92.352L20.7545 100.16H25.8585C26.1465 100.16 26.3811 100.245 26.5625 100.416C26.7438 100.576 26.8345 100.795 26.8345 101.072C26.8345 101.339 26.7385 101.563 26.5465 101.744C26.3651 101.915 26.1358 102 25.8585 102H18.8345C18.5571 102 18.3171 101.904 18.1145 101.712C17.9118 101.52 17.8105 101.301 17.8105 101.056C17.8105 100.853 17.8851 100.651 18.0345 100.448L24.0985 92.64H19.4745C19.1865 92.64 18.9518 92.5547 18.7705 92.384C18.5891 92.2134 18.4985 91.9894 18.4985 91.712C18.4985 91.4454 18.5891 91.2267 18.7705 91.056C18.9625 90.8854 19.1971 90.8 19.4745 90.8H26.0185C26.2745 90.8 26.5091 90.8907 26.7225 91.072C26.9465 91.2534 27.0585 91.4774 27.0585 91.744Z" fill="black"/>
<path d="M37.4335 91.744C37.4335 91.9467 37.3588 92.1494 37.2095 92.352L31.1295 100.16H36.2335C36.5215 100.16 36.7561 100.245 36.9375 100.416C37.1188 100.576 37.2095 100.795 37.2095 101.072C37.2095 101.339 37.1135 101.563 36.9215 101.744C36.7401 101.915 36.5108 102 36.2335 102H29.2095C28.9321 102 28.6921 101.904 28.4895 101.712C28.2868 101.52 28.1855 101.301 28.1855 101.056C28.1855 100.853 28.2601 100.651 28.4095 100.448L34.4735 92.64H29.8495C29.5615 92.64 29.3268 92.5547 29.1455 92.384C28.9641 92.2134 28.8735 91.9894 28.8735 91.712C28.8735 91.4454 28.9641 91.2267 29.1455 91.056C29.3375 90.8854 29.5721 90.8 29.8495 90.8H36.3935C36.6495 90.8 36.8841 90.8907 37.0975 91.072C37.3215 91.2534 37.4335 91.4774 37.4335 91.744Z" fill="black"/>
<path d="M44.4965 100.24C44.7525 100.24 44.9658 100.325 45.1365 100.496C45.3071 100.656 45.3925 100.864 45.3925 101.12C45.3925 101.365 45.3071 101.573 45.1365 101.744C44.9658 101.915 44.7525 102 44.4965 102H39.3445C39.0991 102 38.8911 101.915 38.7205 101.744C38.5605 101.563 38.4805 101.371 38.4805 101.168C38.4805 100.987 38.5018 100.837 38.5445 100.72C38.5871 100.592 38.6671 100.448 38.7845 100.288L42.5925 95.36H39.4885C39.2325 95.36 39.0191 95.2747 38.8485 95.104C38.6778 94.9334 38.5925 94.72 38.5925 94.464C38.5925 94.2187 38.6778 94.016 38.8485 93.856C39.0191 93.6854 39.2325 93.6 39.4885 93.6H44.4165C44.6511 93.6 44.8485 93.6854 45.0085 93.856C45.1791 94.016 45.2645 94.2187 45.2645 94.464C45.2645 94.624 45.2485 94.7627 45.2165 94.88C45.1845 94.9867 45.1098 95.1147 44.9925 95.264L41.1525 100.24H44.4965Z" fill="black"/>
<path d="M52.2465 100.24C52.5025 100.24 52.7158 100.325 52.8865 100.496C53.0571 100.656 53.1425 100.864 53.1425 101.12C53.1425 101.365 53.0571 101.573 52.8865 101.744C52.7158 101.915 52.5025 102 52.2465 102H47.0945C46.8491 102 46.6411 101.915 46.4705 101.744C46.3105 101.563 46.2305 101.371 46.2305 101.168C46.2305 100.987 46.2518 100.837 46.2945 100.72C46.3371 100.592 46.4171 100.448 46.5345 100.288L50.3425 95.36H47.2385C46.9825 95.36 46.7691 95.2747 46.5985 95.104C46.4278 94.9334 46.3425 94.72 46.3425 94.464C46.3425 94.2187 46.4278 94.016 46.5985 93.856C46.7691 93.6854 46.9825 93.6 47.2385 93.6H52.1665C52.4011 93.6 52.5985 93.6854 52.7585 93.856C52.9291 94.016 53.0145 94.2187 53.0145 94.464C53.0145 94.624 52.9985 94.7627 52.9665 94.88C52.9345 94.9867 52.8598 95.1147 52.7425 95.264L48.9025 100.24H52.2465Z" fill="black"/>
<path d="M209.148 75.1401C208.364 75.1401 207.687 74.9301 207.118 74.5101C206.558 74.0901 206.133 73.5021 205.844 72.7461C205.555 71.9807 205.41 71.0987 205.41 70.1001C205.41 69.1014 205.555 68.2241 205.844 67.4681C206.133 66.7027 206.558 66.1101 207.118 65.6901C207.687 65.2701 208.364 65.0601 209.148 65.0601C209.932 65.0601 210.604 65.2701 211.164 65.6901C211.733 66.1101 212.163 66.7027 212.452 67.4681C212.741 68.2241 212.886 69.1014 212.886 70.1001C212.886 71.0987 212.741 71.9807 212.452 72.7461C212.163 73.5021 211.733 74.0901 211.164 74.5101C210.604 74.9301 209.932 75.1401 209.148 75.1401ZM209.148 73.4601C209.745 73.4601 210.212 73.1754 210.548 72.6061C210.893 72.0367 211.066 71.2014 211.066 70.1001C211.066 68.9987 210.893 68.1634 210.548 67.5941C210.212 67.0247 209.745 66.7401 209.148 66.7401C208.551 66.7401 208.079 67.0247 207.734 67.5941C207.398 68.1634 207.23 68.9987 207.23 70.1001C207.23 71.2014 207.398 72.0367 207.734 72.6061C208.079 73.1754 208.551 73.4601 209.148 73.4601Z" fill="black"/>
<path d="M216.67 65.2001C216.903 65.2001 217.099 65.2841 217.258 65.4521C217.416 65.6107 217.496 65.8114 217.496 66.0541V74.1461C217.496 74.3887 217.407 74.5941 217.23 74.7621C217.052 74.9207 216.833 75.0001 216.572 75.0001C216.31 75.0001 216.096 74.9207 215.928 74.7621C215.76 74.5941 215.676 74.3887 215.676 74.1461V67.5101L214.808 68.0421C214.668 68.1261 214.518 68.1681 214.36 68.1681C214.126 68.1681 213.926 68.0794 213.758 67.9021C213.599 67.7247 213.52 67.5287 213.52 67.3141C213.52 67.1647 213.557 67.0247 213.632 66.8941C213.716 66.7634 213.823 66.6607 213.954 66.5861L216.068 65.3261C216.226 65.2421 216.427 65.2001 216.67 65.2001Z" fill="black"/>
<path d="M222.847 75.1401C222.063 75.1401 221.387 74.9301 220.817 74.5101C220.257 74.0901 219.833 73.5021 219.543 72.7461C219.254 71.9807 219.109 71.0987 219.109 70.1001C219.109 69.1014 219.254 68.2241 219.543 67.4681C219.833 66.7027 220.257 66.1101 220.817 65.6901C221.387 65.2701 222.063 65.0601 222.847 65.0601C223.631 65.0601 224.303 65.2701 224.863 65.6901C225.433 66.1101 225.862 66.7027 226.151 67.4681C226.441 68.2241 226.585 69.1014 226.585 70.1001C226.585 71.0987 226.441 71.9807 226.151 72.7461C225.862 73.5021 225.433 74.0901 224.863 74.5101C224.303 74.9301 223.631 75.1401 222.847 75.1401ZM222.847 73.4601C223.445 73.4601 223.911 73.1754 224.247 72.6061C224.593 72.0367 224.765 71.2014 224.765 70.1001C224.765 68.9987 224.593 68.1634 224.247 67.5941C223.911 67.0247 223.445 66.7401 222.847 66.7401C222.25 66.7401 221.779 67.0247 221.433 67.5941C221.097 68.1634 220.929 68.9987 220.929 70.1001C220.929 71.2014 221.097 72.0367 221.433 72.6061C221.779 73.1754 222.25 73.4601 222.847 73.4601Z" fill="black"/>
</svg>
