<svg xmlns="http://www.w3.org/2000/svg" xmlns:xlink="http://www.w3.org/1999/xlink" width="100%" height="100%" viewBox="0 0 1280 1280" fill-rule="evenodd" stroke-linejoin="round" stroke-miterlimit="2" xmlns:v="https://vecta.io/nano"><style><![CDATA[.B{stroke:#fff}.C{stroke-linejoin:miter}.D{stroke-miterlimit:10}.E{fill-rule:nonzero}.F{fill:none}.G{stroke-width:98.417}.H{opacity:.75}.I{stroke:#231f20}.J{stroke-width:23.62}.K{stroke-width:2.21}.L{fill:#703aa3}.M{fill:#b4c4b5}.N{stroke-miterlimit:1.5}.O{fill-opacity:.25}.P{fill:#231f20}.Q{stroke-width:6.167}.R{stroke-width:33.333}]]></style><g class="B"><g stroke-width="33.33"><path d="M640 1089.31L212.564 967.95v-695.9L640 150.689l427.44 121.361v695.9L640 1089.31z" class="L"/><path d="M1020 932.107L640 1040 260 932.107V307.893L640 200l380 107.893v624.214z" fill="#ebebeb" class="N"/></g><g fill="#9b51e0" stroke-width="33.334" class="E O"><use xlink:href="#N"/><use xlink:href="#O"/></g></g><g transform="matrix(.338681 0 0 .338681 224.555 223.732)"><g class="B C D E G M"><use xlink:href="#P"/><use xlink:href="#Q"/></g><use xlink:href="#R" class="B E G P"/><g class="C D F B G"><use xlink:href="#S"/><use xlink:href="#T"/><use xlink:href="#U"/></g><g class="E B G"><use xlink:href="#V" class="P"/><use xlink:href="#W" class="C D L"/></g><g transform="scale(4.16667)"><g class="H"><g transform="matrix(.330691 -.943739 -.943739 -.330691 231.347 207.804)"><clipPath id="A"><path d="M-42.747 60.237l14.126-40.314L84.756 59.651 70.629 99.964-42.747 60.237z"/></clipPath><g clip-path="url(#A)" class="B C D F J"><path d="M-42.513 59.944l127.035-.001"/></g></g></g><g class="H"><g transform="matrix(.213485 -.976946 -.976946 -.213485 283.391 193.753)"><clipPath id="B"><path d="M-48.415 60.284l5.749-26.31 117.28 25.628-5.75 26.31-117.279-25.628z"/></clipPath><g clip-path="url(#B)" class="B C D F J"><path d="M-48.259 59.944H74.457"/></g></g></g><g class="H"><g transform="matrix(.098973 -.99509 -.99509 -.098973 331.466 180.42)"><clipPath id="C"><path d="M-54.65 60.642l1.26-12.674L66.64 59.907 65.38 72.58-54.65 60.642z"/></clipPath><g clip-path="url(#C)" class="B C D F J"><path d="M-54.577 60.275H66.567"/></g></g></g><g class="H"><g transform="matrix(-.330691 -.943739 -.943739 .330691 460.355 128.513)"><clipPath id="D"><path d="M-70.629,99.965L-84.755,59.651L28.621,19.923L42.747,60.237L-70.629,99.965Z"/></clipPath><g clip-path="url(#D)" class="B C D F J"><path d="M-84.522 59.944H42.513"/></g></g></g><g class="H"><g transform="matrix(-.20323 -.979131 -.979131 .20323 418.077 143.794)"><clipPath id="E"><path d="M-68.606 84.682l-5.206-25.083L43.722 35.204l5.206 25.083-117.534 24.395z"/></clipPath><g clip-path="url(#E)" class="B C D F J"><path d="M-73.663 59.944H48.779"/></g></g></g><g class="H"><g transform="matrix(-.098973 -.99509 -.99509 .098973 374.474 156.558)"><clipPath id="F"><path d="M-65.38 72.58l-1.26-12.673L53.39 47.969l1.26 12.673L-65.38 72.58z"/></clipPath><g clip-path="url(#F)" class="B C D F J"><path d="M-66.567 60.275H54.577"/></g></g></g></g><g class="B"><g class="C D"><g class="F J"><path d="M-.008-1.631h323.665" transform="matrix(4.16646 .04198 .04198 -4.16646 558.279 804.242)"/><path d="M-.008-1.499l297.66-.001" transform="matrix(4.16646 .04198 .04198 -4.16646 605.4 696.342)"/><path d="M-.007-1.395h276.77" transform="matrix(4.16646 .041987 .041987 -4.16646 654.045 593.726)"/><path d="M-.006-1.287h255.635" transform="matrix(4.16646 .041971 .041971 -4.16646 698.299 506.696)"/></g><g fill="#066738" class="E G"><use xlink:href="#X"/><use xlink:href="#Y"/><use xlink:href="#Z"/><use xlink:href="#a"/><use xlink:href="#b"/><use xlink:href="#c"/><use xlink:href="#d"/><use xlink:href="#e"/></g></g><use xlink:href="#f" class="E G M"/><g class="C D G"><use xlink:href="#g" class="F"/><g class="E M"><use xlink:href="#h"/><use xlink:href="#i"/></g></g></g></g><g class="B L"><g class="E R"><use xlink:href="#j"/><use xlink:href="#j" x="41.76"/><use xlink:href="#j" x="83.521"/><use xlink:href="#k"/><use xlink:href="#l"/><use xlink:href="#m"/><use xlink:href="#n"/><use xlink:href="#o"/><use xlink:href="#p"/><use xlink:href="#q"/><use xlink:href="#r"/><use xlink:href="#s"/><use xlink:href="#t"/><use xlink:href="#u"/><use xlink:href="#v"/><use xlink:href="#w"/><use xlink:href="#x"/><use xlink:href="#y"/><use xlink:href="#z"/><use xlink:href="#AA"/><use xlink:href="#AB"/><use xlink:href="#AB" x="34.434"/><use xlink:href="#AC"/><use xlink:href="#AD"/><use xlink:href="#x" x="213.028"/></g><g class="N"><path d="M1067.425 637.272h154.852l-51.617 112.45 51.617 112.45h-154.852v-224.9zm-854.852 0H57.721l51.617 112.45-51.617 112.45h154.852v-224.9z" stroke-width="33.335"/><path d="M152.266 637.273h975.465V830H152.266z" stroke-width="33.337"/></g></g><g fill="#fff" class="E R B"><use xlink:href="#AE"/><use xlink:href="#AF"/><use xlink:href="#AG"/><use xlink:href="#AH"/></g><path d="M640 1089.31L212.564 967.95v-695.9L640 150.689l427.44 121.361v695.9L640 1089.31z" stroke="#703aa3" class="L"/><path d="M1020 932.107L640 1040 260 932.107V307.893L640 200l380 107.893v624.214z" fill="#ebebeb" stroke-width="16.67" class="B N"/><g fill="#9b51e0" class="E O"><use xlink:href="#N"/><use xlink:href="#O"/></g><g transform="matrix(.338681 0 0 .338681 224.555 223.732)"><g class="C D E I M Q"><use xlink:href="#P"/><use xlink:href="#Q"/></g><use xlink:href="#R" class="E P"/><g class="C D F I Q"><use xlink:href="#S"/><use xlink:href="#T"/><use xlink:href="#U"/></g><g class="E"><use xlink:href="#V" class="P"/><use xlink:href="#W" class="L"/></g><g transform="scale(4.16667)"><g class="H"><g transform="matrix(.330691 -.943739 -.943739 -.330691 231.347 207.804)"><clipPath id="G"><path d="M-42.747 60.237l14.126-40.314L84.756 59.651 70.629 99.964-42.747 60.237z"/></clipPath><g clip-path="url(#G)" class="C D F I K"><path d="M-42.513 59.944l127.035-.001"/></g></g></g><g class="H"><g transform="matrix(.213485 -.976946 -.976946 -.213485 283.391 193.753)"><clipPath id="H"><path d="M-48.415 60.284l5.749-26.31 117.28 25.628-5.75 26.31-117.279-25.628z"/></clipPath><g clip-path="url(#H)" class="C D F I K"><path d="M-48.259 59.944H74.457"/></g></g></g><g class="H"><g transform="matrix(.098973 -.99509 -.99509 -.098973 331.466 180.42)"><clipPath id="I"><path d="M-54.65 60.642l1.26-12.674L66.64 59.907 65.38 72.58-54.65 60.642z"/></clipPath><g clip-path="url(#I)" class="C D F I K"><path d="M-54.577 60.275H66.567"/></g></g></g><g class="H"><g transform="matrix(-.330691 -.943739 -.943739 .330691 460.355 128.513)"><clipPath id="J"><path d="M-70.629,99.965L-84.755,59.651L28.621,19.923L42.747,60.237L-70.629,99.965Z"/></clipPath><g clip-path="url(#J)" class="C D F I K"><path d="M-84.522 59.944H42.513"/></g></g></g><g class="H"><g transform="matrix(-.20323 -.979131 -.979131 .20323 418.077 143.794)"><clipPath id="K"><path d="M-68.606 84.682l-5.206-25.083L43.722 35.204l5.206 25.083-117.534 24.395z"/></clipPath><g clip-path="url(#K)" class="C D F I K"><path d="M-73.663 59.944H48.779"/></g></g></g><g class="H"><g transform="matrix(-.098973 -.99509 -.99509 .098973 374.474 156.558)"><clipPath id="L"><path d="M-65.38 72.58l-1.26-12.673L53.39 47.969l1.26 12.673L-65.38 72.58z"/></clipPath><g clip-path="url(#L)" class="C D F I K"><path d="M-66.567 60.275H54.577"/></g></g></g></g><g class="C D I"><g class="F K"><path d="M-.008-1.631h323.665" transform="matrix(4.16646 .04198 .04198 -4.16646 558.279 804.242)"/><path d="M-.008-1.499l297.66-.001" transform="matrix(4.16646 .04198 .04198 -4.16646 605.4 696.342)"/><path d="M-.007-1.395h276.77" transform="matrix(4.16646 .041987 .041987 -4.16646 654.045 593.726)"/><path d="M-.006-1.287h255.635" transform="matrix(4.16646 .041971 .041971 -4.16646 698.299 506.696)"/></g><g fill="#066738" stroke-width="12.292" class="E"><use xlink:href="#X"/><use xlink:href="#Y"/><use xlink:href="#Z"/><use xlink:href="#a"/><use xlink:href="#b"/><use xlink:href="#c"/><use xlink:href="#d"/><use xlink:href="#e"/></g></g><use xlink:href="#f" class="E M"/><g class="C D I Q"><use xlink:href="#g" class="F"/><g class="E M"><use xlink:href="#h"/><use xlink:href="#i"/></g></g></g><g class="L"><g class="E"><use xlink:href="#j"/><use xlink:href="#j" x="41.76"/><use xlink:href="#j" x="83.521"/><use xlink:href="#k"/><use xlink:href="#l"/><use xlink:href="#m"/><use xlink:href="#n"/><use xlink:href="#o"/><use xlink:href="#p"/><use xlink:href="#q"/><use xlink:href="#r"/><use xlink:href="#s"/><use xlink:href="#t"/><use xlink:href="#u"/><use xlink:href="#v"/><use xlink:href="#w"/><use xlink:href="#x"/><use xlink:href="#y"/><use xlink:href="#z"/><use xlink:href="#AA"/><use xlink:href="#AB"/><use xlink:href="#AB" x="34.434"/><use xlink:href="#AC"/><use xlink:href="#AD"/><use xlink:href="#x" x="213.028"/></g><path d="M1067.425 637.272h154.852l-51.617 112.45 51.617 112.45h-154.852v-224.9zm-854.852 0H57.721l51.617 112.45-51.617 112.45h154.852v-224.9z"/><path d="M152.266 600h975.465v230H152.266z" stroke-width="16.664" class="B N"/></g><g fill="#fff" class="E"><use xlink:href="#AE"/><use xlink:href="#AF"/><use xlink:href="#AG"/><use xlink:href="#AH"/></g><defs ><path id="N" d="M791.771 914.77l.548 9.282c.886 7.457-1.73 13.522-7.49 18.039-3.202 2.511-6.785 4.76-10.539 6.294-3.402 1.387-5.208 3.431-5.641 6.866-.276 2.197-.305 4.426-.5 6.637-.205 2.368-.443 4.731-.724 7.095-.496 4.145-2.792 7.061-6.485 8.781-3.588 1.672-7.228 3.292-10.964 4.579-5.108 1.758-9.415 4.317-12.421 9.029-2.506 3.931-6.361 5.67-11.068 4.989-3.135-.453-6.032.152-8.715 1.691-6.694 3.84-13.703 3.921-21.212 2.987-5.732-.715-11.688.143-17.52.619-1.158.095-2.325 1.496-3.269 2.506-4.15 4.431-6.351 4.631-11.516 1.267-1.22-.796-2.859-1.167-4.345-1.291-5.346-.453-7.495-2.945-6.27-8.071.586-2.454-.31-4.322-1.277-6.323-2.759-5.713-2.644-6.775 1.082-11.583 0-.324.129-.729-.019-.929-5.055-6.813-8.009-14.685-11.302-22.389-.31-.729-.696-1.439-.901-2.201-1.134-4.16-2.354-8.233-6.618-10.425-.519-.267-.934-.886-1.229-1.429l-10.039-18.887c-.877-1.682-1.32-3.593-2.244-5.241-2.783-4.97-2.873-10.201-2.349-15.714.505-5.336.3-10.74.391-16.109.043-2.663-1.225-4.522-3.593-5.66-5.417-2.602-8.048-7.037-9.71-12.755-2.049-7.047-5.565-13.403-11.878-17.901-1.777-1.267-3.016-3.612-3.917-5.708-1.182-2.749-1.691-5.78-2.649-8.634-1.248-3.731-1.315-7.38-.305-11.221.758-2.878 1.048-5.918 1.196-8.905.257-5.112.243-10.535 3.068-14.761 4.517-6.747 9.005-13.656 14.875-19.349 2.316-2.249 3.445-4.35 2.744-7.495-1.325-5.922-2.935-11.616-7.195-16.324-3.483-3.85-3.121-5.494-.486-10.192 2.578-4.593.886-9.186-.967-13.594-.419-.991-1.196-1.887-1.968-2.668-4.017-4.074-6.523-8.786-7.523-14.532-.462-2.663-2.254-5.203-3.821-7.542-4.15-6.18-8.443-12.264-12.831-18.282-1.163-1.596-2.783-2.892-4.326-4.164-3.178-2.621-6.518-5.046-9.629-7.743-.862-.748-1.596-2.144-1.625-3.264-.105-3.664-1.348-6.79-3.535-9.644-.248-.324-.186-.891-.329-1.663 3.107-1.21 4.093-3.826 4.603-6.947.267-1.62 1.291-3.178 2.201-4.622 2.039-3.245 1.901-4.269-1.248-6.613-2.93-2.182-2.668-2.549.033-5.232 2.301-2.282 4.503-5.012 5.699-7.971 1.225-3.03.057-6.28-2.349-8.743-2.544-2.606-5.141-5.165-7.766-7.69-.548-.524-1.468-1.301-1.958-1.144-4.021 1.277-8.5.095-12.302 2.959-5.098 3.836-9.601 2.806-13.474-2.292-3.45-4.541-6.704-9.282-10.592-13.413-3.412-3.621-7.18-7.476-13.141-5.713-.295.086-.662.114-.943.024-8.057-2.602-15.123 1.039-22.418 3.445-2.992.986-6.156 1.458-9.224 2.235-3.435.872-6.537 2.397-8.91 5.117-4.15 4.765-9.062 5.803-15.023 3.697-3.092-1.091-6.461-1.477-9.739-1.958-3.13-.457-6.308-.896-9.458-.858-4.898.057-9.791.486-14.68.843-2.216.162-4.45.372-6.609.853-2.42.538-4.684 1.139-6.647 3.221-1.977 2.101-4.86 3.44-7.533 4.736-.853.415-2.454-.119-3.416-.705-1.039-.629-1.744-1.811-2.578-2.768-2.235-2.573-4.955-4.274-8.205-5.456-2.606-.948-5.074-2.501-7.333-4.15-4.35-3.178-8.581-6.528-11.859-10.911a5.61 5.61 0 0 0-2.23-1.749c-3.55-1.468-6.008-4.036-7.895-7.29-1.825-3.149-5.022-4.212-8.205-5.27-4.236-1.415-4.14-1.439-4.341-6.027-.062-1.448-.629-3.102-1.506-4.245-1.915-2.497-3.04-5.146-3.135-8.291-.162-5.279-1.977-9.567-7.166-11.883-1.129-.505-2.177-1.363-3.04-2.273-2.754-2.911-5.475-5.198-10.077-4.874-3.288.229-5.193-2.764-4.017-6.013 1.267-3.493.191-6.137-1.453-8.934-.881-1.506-1.696-3.054-2.449-4.631-1.129-2.368-1.711-4.865-.481-7.342 1.329-2.678.434-4.831-1.096-7.052-1.067-1.553-2.063-3.226-2.721-4.984-1.534-4.088-.395-6.651 3.497-8.519 4.107-1.973 4.05-1.968 3.821-6.728-.181-3.759.777-7.157 3.135-10.225 1.32-1.72 2.582-3.697 3.14-5.756 1.325-4.889 2.239-9.891 3.269-14.861.862-4.179 1.777-8.357 2.397-12.574.21-1.425-.176-3.078-.753-4.431-.538-1.272-1.744-2.244-2.559-3.416-3.454-4.989-3.378-10.22.515-14.871 2.797-3.34 4.831-6.961 6.285-11.087.858-2.435 2.435-4.903 4.345-6.628 5.284-4.774 8.953-10.277 11.826-16.919 3.45-7.981 8.881-15.047 16.495-19.869 3.774-2.387 7.357-4.855 10.349-8.276 3.226-3.688 6.313-4.45 10.64-1.944 6.251 3.621 11.85.658 14.218-5.336 2.621-6.623 6.227-12.402 11.821-16.986 2.663-2.187 3.602-5.537 3.683-9.005.048-2.22-.043-4.45.062-6.671.21-4.36 2.23-7.304 6.389-9.139 6.375-2.806 12.645-5.88 18.778-9.182 2.149-1.158 3.821-3.254 5.584-5.046 1.887-1.92 3.407-4.245 5.465-5.927 3.74-3.064 7.824-2.53 9.992 1.772 2.706 5.365 6.894 7.061 12.412 6.918 1.425-.038 2.897-.086 4.274.205 8.786 1.844 16.662-.739 24.162-4.96 1.448-.815 2.692-2.116 3.783-3.407 1.22-1.448 2.106-3.173 3.226-4.712 3.597-4.955 8.286-7.552 14.608-7.414 5.222.114 10.463-.643 15.685-.515 4.722.114 9.596.286 14.094 1.539 5.965 1.663 11.573 1.043 17.315-.41 1.063-.272 2.258-.848 3.211-.6 3.902 1.024 6.823-.281 10.011-2.611 4.665-3.416 10.087-1.915 15.128-.534 2.354.648 3.331 3.245 2.654 5.946-.496 1.977-1.406 3.864-2.273 5.722-1.868 4.007-2.859 8.124-1.415 12.455.986 2.959-.424 4.641-2.459 6.528-3.292 3.064-6.246 6.494-9.963 10.43 3.145.724 5.436.82 7.304 1.763 7.442 3.764 15.628 5.07 23.437 7.59 5.556 1.796 10.916 4.364 16.062 7.157 2.192 1.186 3.755 3.707 5.308 5.832.891 1.22 1.196 2.873 1.82 4.469l7.133.581c6.227.41 12.169 2.039 18.087 3.931 3.578 1.144 7.319 2.359 10.825-.095.076-.343.191-.529.138-.648-2.883-6.523-.319-11.254 4.85-15.266 2.754-2.139 5.255-4.603 7.947-6.828 2.702-2.235 5.813-2.992 9.344-2.644 3.893.386 6.537 2.292 8.024 5.803 2.297 5.422 6.609 7.123 12.126 7.023 1.706-.029 3.416.577 5.127.862 2.492.419 5.008 1.215 7.485 1.124 4.593-.167 8.815.953 12.917 2.735 5.598 2.435 11.249 2.692 16.972.605 3.264-1.191 6.547-2.359 9.687-3.826 4.283-2.006 8.676-1.539 13.008-.734 2.068.386 3.888.543 5.994.105 2.096-.438 4.422-.172 6.58.191 5.213.872 9.739 2.511 12.274 8.043 1.582 3.45 3.731 6.59 4.136 10.497.114 1.101.157 2.287.6 3.264 3.049 6.69-.905 11.369-4.598 16.062-.839 1.067-2.249 1.682-3.616 2.668.729 3.378 2.635 6.199 4.75 8.958 3.855 5.036 7.771 10.03 11.373 15.242 2.23 3.226 3.945 6.809 5.837 10.268.281.515.534 1.358.31 1.787-2.802 5.336.829 8.834 3.578 12.517 1.129 1.51 2.578 2.811 4.012 4.055 3.959 3.445 6.432 7.766 7.871 12.75l5.398 18.673c.453 1.663 1.52 2.173 2.887 2.764 3.807 1.644 7.385 3.554 9.834 7.199 2.092 3.111 3.35 6.266 3.616 10.106.329 4.712 1.491 9.372 2.216 13.617l17.391 8.862 6.366 3.221c.567.286 1.296.381 1.715.8 4.912 4.898 11.445 7.824 15.995 13.155 1.734 2.03 1.725 3.936-.133 5.918-.743.796-1.696 1.396-2.654 2.163.415 4.012 2.163 7.371 4.979 10.011 2.416 2.263 5.136 4.245 7.924 6.037 1.005.648 2.711.786 3.907.462 4.998-1.358 10.411-1.515 14.775-4.827.243-.186.6-.367.877-.334 7.919 1.029 15.161-4.255 23.19-2.497 1.144.253 2.506-.181 3.697-.529 5.956-1.758 12.04-2.783 17-7.409 3.478-3.24 6.499-1.477 7.109 3.302.281 2.201.224 4.455.605 6.637.962 5.546-.334 10.392-2.754 15.538-3.107 6.604-6.251 13.065-10.316 19.154-2.42 3.631-4.45 7.619-5.022 12.212-.262 2.111-1.63 4.098-2.563 6.108s-2.182 3.912-2.878 5.994c-1.244 3.716-3.264 6.699-6.17 9.396-2.011 1.863-3.149 4.669-4.703 7.037l-6.027 9.024c-1.001 1.42-2.42 2.544-3.392 3.978-2.84 4.174-6.794 6.871-10.954 9.634-5.513 3.669-10.797 7.457-16.91 10.258-4.326 1.982-8.005 5.694-11.454 9.148-1.649 1.653-2.282 4.445-3.045 6.828-.867 2.711-1.286 5.56-2.035 8.314-1.039 3.812-3.373 6.609-6.499 9.096-4.202 3.354-8.148 7.08-11.859 10.978-1.687 1.772-2.744 4.25-3.745 6.561-1.792 4.126-3.85 8.038-7.352 10.968-1.539 1.286-1.977 2.73-1.534 4.631.248 1.072.395 2.216.324 3.311-.334 5.255.824 9.92 4.307 14.113 1.558 1.877 2.306 4.503 3.154 6.88 1.649 4.626 3.254 9.277 4.588 13.999.677 2.401.734 4.984 1.048 7.485.038.305-.119.638-.086.943 1.067 10.034 1.358 20.15 3.288 30.098.872 4.503 1.572 9.048 2.182 13.594.591 4.417-.948 8.2-4.274 11.087-6.833 5.932-13.617 11.931-20.741 17.501-2.668 2.087-6.099 3.421-9.391 4.426-4.403 1.344-8.162 3.45-11.192 6.871-2.983 3.369-6.337 6.237-10.497 8.052-2.101.915-3.111 2.521-3.521 4.712-1.12 6.027-1.001 12.031.658 17.906.962 3.416 1.658 6.728.986 10.292-.257 1.353.024 2.845.229 4.245.276 1.882.762 3.731 1.077 5.608 1.334 7.957-.92 11.535-8.615 13.832l-22.832 6.899z"/><path id="O" d="M962.456 818.934l.839 6.351c.281 1.553.943 3.04 1.182 4.593.329 2.173-.376 3.945-2.921 3.855-3.169-.114-3.359 1.72-3.683 4.221-.419 3.24-1.387 6.437-2.411 9.558-1.277 3.907-2.859 7.714-4.293 11.564-.167.443-.172.958-.376 1.372-5.822 11.907-8.214 25.362-16.476 36.197-1.353 1.777-1.939 4.317-2.363 6.599-1.377 7.4-3.54 9.563-10.987 11.006-2.101.41-4.221 1.282-6.061 2.387-6.666 4.007-12.96 3.559-18.763-1.553-2.177-1.915-3.04-4.403-3.173-7.185-.21-4.431-.243-8.872-.577-13.293-.138-1.853-.681-3.726-1.315-5.494-2.535-7.033-1.644-12.326 4.369-16.419 5.675-3.859 6.756-8.719 5.708-14.79-.11-.624-.405-1.334-.229-1.873 2.411-7.247-.453-15.128 2.702-22.299.557-1.272.553-2.783.891-4.164 1.325-5.398 4.007-9.872 9.701-11.254 2.463-.6 5.317-.129 7.89.372 4.727.92 4.803 1.129 6.785-3.202 1.248-2.73 2.949-4.288 6.108-4.355 3.688-.076 6.28-2.22 7.614-5.503 1.587-3.898 3.359-7.442 7.157-9.763 1.001-.615 1.644-2.363 1.825-3.674.643-4.622 3.197-8.248 5.822-11.821 2.096-2.854 4.55-2.935 6.528.033 3.264 4.903 6.032 10.158 6.213 16.219.133 4.417-.424 8.853-.338 13.279.052 2.811.753 5.603 1.091 8.41.219 1.801 1.277 4.059-1.124 5.027-2.335.939-3.245-1.277-4.364-2.759-.538-.715-1.129-1.391-1.696-2.087-.419.157-.848.3-1.272.443z"/><path id="P" d="M914.292 483.15c4.654-.958 11.054-2.5 18.463-5.013 9.421-3.2 27.388-9.467 44.213-23.475 27.867-23.213 36.129-53.971 38.513-63.354 4.125-16.238 4.204-30.171 3.65-39.2-8.475 2.229-20.267 6.221-33.05 13.675-5.729 3.342-22.371 13.621-37.829 33.046-12.183 15.308-18.038 29.263-21.65 38.058a174.46 174.46 0 0 0-10.938 38.971l-1.371 7.292z"/><path id="Q" d="M903.973 482.533c-6.033-2.483-14.471-6.542-23.546-13.067-7.717-5.546-23.371-18.246-34.842-39.879-8.7-16.4-11.238-30.858-12.792-40.146-1.65-9.842-2.033-18.25-2.042-24.363 6.167 2.421 14.358 6.179 23.271 11.975 6.613 4.296 17.363 11.413 27.629 24.229 11.942 14.904 17.271 30.088 19.733 39.875 3.354 13.3 3.471 24.738 2.996 32.392l-.408 8.983z"/><path id="R" d="M904.903 485.674c.325-.417.771-.971 1.558-1.367.517-.254.967-.333 1.288-.388.463-.079 1.267-.213 2.221.079a4.37 4.37 0 0 1 2.029 1.363c.813.971.963 2.004 1.013 2.379.117.879-.05 1.542-.275 2.417-.283 1.096-.596 1.667-1.092 2.808l-1.204 3.196c-1.013 2.75-1.467 5.629-1.833 7.988a74.81 74.81 0 0 0-.821 8.342c-.221 5.275-.508 12.163 1.054 20.738 1.621 8.9 4.504 15.575 7.638 22.842 1.117 2.583 2.121 4.708 2.846 6.196.142.225.375.658.417 1.238.058.879-.35 1.517-.529 1.788-.458.683-1.042.992-1.538 1.254-.175.096-1 .521-2.179.617-.575.046-1.133.092-1.754-.167-.633-.267-1.004-.713-1.175-.925-3.108-3.833-4.104-6-4.104-6-2.025-4.421-2.85-6.875-2.85-6.875l-4.333-13.271c-.713-2.867-1.946-8.463-2.442-15.679-.492-7.225-.029-12.971.313-16.088.871-8 2.596-13.929 3.229-15.988a85.64 85.64 0 0 1 1.117-3.379c.167-.817.538-2.004 1.408-3.117"/><path id="S" d="M904.903 485.674c.325-.417.771-.971 1.558-1.367.517-.254.967-.333 1.288-.388.463-.079 1.267-.213 2.221.079a4.37 4.37 0 0 1 2.029 1.363c.813.971.963 2.004 1.013 2.379.117.879-.05 1.542-.275 2.417-.283 1.096-.596 1.667-1.092 2.808l-1.204 3.196c-1.013 2.75-1.467 5.629-1.833 7.988a74.81 74.81 0 0 0-.821 8.342c-.221 5.275-.508 12.163 1.054 20.738 1.621 8.9 4.504 15.575 7.638 22.842 1.117 2.583 2.121 4.708 2.846 6.196.142.225.375.658.417 1.238.058.879-.35 1.517-.529 1.788-.458.683-1.042.992-1.538 1.254-.175.096-1 .521-2.179.617-.575.046-1.133.092-1.754-.167-.633-.267-1.004-.713-1.175-.925-3.108-3.833-4.104-6-4.104-6-2.025-4.421-2.85-6.875-2.85-6.875l-4.333-13.271c-.713-2.867-1.946-8.463-2.442-15.679-.492-7.225-.029-12.971.313-16.088.871-8 2.596-13.929 3.229-15.988a85.64 85.64 0 0 1 1.117-3.379c.167-.817.538-2.004 1.408-3.117z"/><path id="T" d="M903.314 481.472c-2.171-10.671-6.017-24.033-13.088-38.421-11.975-24.363-27.796-40.667-38.738-50.196"/><path id="U" d="M915.141 482.204c3.879-7.913 8.313-16.1 13.383-24.45 17.642-29.042 37.792-51.4 56.013-68.175"/><path id="V" d="M2094.8 975.425c-11.329-20.429-24.263-46.958-40.475-82.625l-264.379-526.963-5.379-8.375a44.46 44.46 0 0 0-3.588-2.692c-9.2-6.171-19.054-7.613-26.017-7.771l-97.004-1.713c-1.304.725-2.696 1.358-4.188 1.867-.271.229-.5.496-.788.713-.654 1.604-.696 3.238-.617 4.375l.188 43.454.192 1.329a5.5 5.5 0 0 0 .192 1.325c.729 2.696 3.313 3.983 3.892 4.271 1.717.854 3.342.904 4.267.854l85.317-.008 283.859 569.038-1608.072.029 284.554-568.375 26.671-.371c1.625.271 46.404.283 49.304.254 12.163-.121 12.817.458 13.1-2.179.563-5.2 2.154-12.133 3.013-25.763.917-14.479.621-12.258.863-19.075.15-4.3 3.3-9.325-15.542-9.646 0 0-8.538-.708-48.071-1.329l-40.946-.688c-1.75-.125-4.213-.213-7.142 0-2.538.183-7.183.517-11.108 2.117-6.729 2.75-10.413 8.858-12.063 12.221L354.157 979.938l-2.8 7.658c-.483 1.358-1.038 3.271-1.308 5.604-.117 1.013-1.471 14.688 8.779 23.346 5.367 4.533 11.35 5.521 14.192 5.788l1707.11.067h6.688c1.275 0 3.142-.15 5.2-.929 6.117-2.317 8.8-8.283 9.838-10.583 5.658-12.563-6.083-33.708-7.054-35.463"/><path id="W" d="M2094.8 975.425c-11.329-20.429-24.263-46.958-40.475-82.625l-264.379-526.963-5.379-8.375a44.46 44.46 0 0 0-3.588-2.692c-9.2-6.171-19.054-7.613-26.017-7.771l-97.004-1.713c-1.304.725-2.696 1.358-4.188 1.867-.271.229-.5.496-.788.713-.654 1.604-.696 3.238-.617 4.375l.188 43.454.192 1.329a5.5 5.5 0 0 0 .192 1.325c.729 2.696 3.313 3.983 3.892 4.271 1.717.854 3.342.904 4.267.854l85.317-.008 283.859 569.038-1608.072.029 284.554-568.375 26.671-.371c1.625.271 46.404.283 49.304.254 12.163-.121 12.817.458 13.1-2.179.563-5.2 2.154-12.133 3.013-25.763.917-14.479.621-12.258.863-19.075.15-4.3 3.3-9.325-15.542-9.646 0 0-8.538-.708-48.071-1.329l-40.946-.688c-1.75-.125-4.213-.213-7.142 0-2.538.183-7.183.517-11.108 2.117-6.729 2.75-10.413 8.858-12.063 12.221L354.157 979.938l-2.8 7.658c-.483 1.358-1.038 3.271-1.308 5.604-.117 1.013-1.471 14.688 8.779 23.346 5.367 4.533 11.35 5.521 14.192 5.788l1707.11.067h6.688c1.275 0 3.142-.15 5.2-.929 6.117-2.317 8.8-8.283 9.838-10.583 5.658-12.563-6.083-33.708-7.054-35.463z"/><path id="X" d="M1218.66 134.391a141.33 141.33 0 0 0-9.004 11.925c-8.45 12.513-12.913 23.433-15.821 30.671-3.313 8.233-5.508 13.7-7.304 21.663-4.021 17.858-2.379 32.154-1.946 35.538 1.671 13.067 5.546 21.667 11.683 35.292 0 0 6.529 14.492 25.8 38.454.508.638 1.671 2.05 3.65 3.167 3.233 1.821 7.758 2.613 11.442.975 3.354-1.492 5-4.517 5.596-5.6 7.817-14.108 13.042-13.825 22.879-34.321 5.904-12.296 11.958-24.904 13.633-43.079.438-4.763 1.488-19.808-3.408-37.971-2.579-9.563-5.913-16.679-8.275-21.663-3.1-6.538-8.933-17.342-15.333-25.558-1.158-1.483-4.038-5.058-5.846-10.467-.679-2.042-1.063-3.913-1.458-5.842-1.029-5.025-1.333-8.908-1.463-10.463-.542-6.646-1.275-12.217-1.946-17.283-2.088-15.85-3.725-16.829-3.408-22.15.121-1.979-.242-4.158-.971-8.521-.233-1.396-.471-2.575-1.463-3.408-1.496-1.25-4.158-1.242-5.354 0-.783.821-.708 1.938-.729 3.167-.046 2.8-1.071 5.5-1.463 8.275-.008.079-1.221 7.029-3.65 20.933l-3.408 19.471-1.946 11.196-.488 5.6z"/><path id="Y" d="M1103.77 281.675c-.421 3.55-.888 8.696-.958 14.917-.179 15.096 2.104 26.667 3.654 34.313 1.767 8.7 2.938 14.475 5.817 22.108 6.467 17.125 15.704 28.158 17.925 30.746 8.583 9.996 16.55 15.046 29.171 23.05 0 0 13.425 8.513 42.7 17.921.775.25 2.521.792 4.788.633 3.704-.258 7.917-2.083 10.092-5.479 1.979-3.088 1.688-6.521 1.596-7.754-1.233-16.083 3.283-18.717.229-41.246-1.833-13.513-3.717-27.375-12.317-43.475-2.254-4.221-9.65-17.358-23.733-29.838-7.413-6.567-14.113-10.675-18.825-13.538-6.183-3.75-17-9.567-26.867-12.908-1.783-.604-6.154-2.004-10.633-5.525-1.696-1.333-3.042-2.683-4.433-4.075-3.625-3.633-6.013-6.708-6.979-7.938-4.108-5.25-7.788-9.5-11.133-13.363-10.463-12.083-12.367-12.004-15.025-16.621-.992-1.721-2.496-3.338-5.5-6.579-.967-1.042-1.813-1.896-3.096-2.042-1.938-.225-4.158 1.25-4.471 2.946-.208 1.113.471 2.004 1.129 3.042 1.504 2.367 2.133 5.183 3.333 7.717.033.067 2.846 6.542 8.467 19.488l7.867 18.133 4.529 10.425 2.675 4.942z"/><path id="Z" d="M1103.77 427.154c-.421 3.546-.888 8.692-.958 14.913-.179 15.1 2.104 26.671 3.654 34.313 1.767 8.7 2.938 14.475 5.817 22.108 6.467 17.125 15.704 28.163 17.925 30.75 8.583 9.996 16.55 15.046 29.171 23.046 0 0 13.425 8.513 42.7 17.925.775.25 2.521.792 4.788.633 3.704-.258 7.917-2.083 10.092-5.479 1.979-3.092 1.688-6.521 1.596-7.754-1.233-16.083 3.283-18.717.229-41.246-1.833-13.517-3.717-27.375-12.317-43.475-2.254-4.221-9.65-17.363-23.733-29.838-7.413-6.567-14.113-10.675-18.825-13.538-6.183-3.754-17-9.567-26.867-12.908-1.783-.604-6.154-2.004-10.633-5.525-1.696-1.333-3.042-2.683-4.433-4.075-3.625-3.633-6.013-6.708-6.979-7.942-4.108-5.246-7.788-9.496-11.133-13.358-10.463-12.088-12.367-12.004-15.025-16.625-.992-1.717-2.496-3.338-5.5-6.579-.967-1.038-1.813-1.892-3.096-2.042-1.938-.221-4.158 1.25-4.471 2.946-.208 1.117.471 2.008 1.129 3.046 1.504 2.367 2.133 5.183 3.333 7.713.033.071 2.846 6.546 8.467 19.492l7.867 18.133 4.529 10.421 2.675 4.946z"/><path id="a" d="M1103.77 575.234c-.421 3.546-.888 8.692-.958 14.913-.179 15.1 2.104 26.671 3.654 34.317 1.767 8.7 2.938 14.475 5.817 22.108 6.467 17.121 15.704 28.158 17.925 30.746 8.583 9.996 16.55 15.046 29.171 23.046 0 0 13.425 8.513 42.7 17.925.775.25 2.521.792 4.788.633 3.704-.258 7.917-2.083 10.092-5.479 1.979-3.092 1.688-6.521 1.596-7.754-1.233-16.083 3.283-18.717.229-41.246-1.833-13.517-3.717-27.375-12.317-43.475-2.254-4.221-9.65-17.358-23.733-29.838-7.413-6.567-14.113-10.675-18.825-13.538-6.183-3.75-17-9.567-26.867-12.908-1.783-.604-6.154-2.004-10.633-5.525-1.696-1.333-3.042-2.683-4.433-4.075-3.625-3.633-6.013-6.708-6.979-7.938-4.108-5.25-7.788-9.5-11.133-13.363-10.463-12.088-12.367-12.004-15.025-16.625-.992-1.717-2.496-3.333-5.5-6.575-.967-1.042-1.813-1.896-3.096-2.042-1.938-.225-4.158 1.246-4.471 2.946-.208 1.113.471 2.004 1.129 3.042 1.504 2.367 2.133 5.183 3.333 7.717.033.067 2.846 6.542 8.467 19.488l7.867 18.133 4.529 10.421 2.675 4.946z"/><path id="b" d="M1335.31 266.265a142.14 142.14 0 0 0-14.038 5.129c-13.888 5.921-23.563 12.671-29.933 17.171-7.25 5.121-12.063 8.517-17.892 14.233-13.067 12.813-19.45 25.713-20.921 28.788-5.688 11.888-7.104 21.208-9.342 35.983 0 0-2.383 15.717.796 46.304.083.808.288 2.625 1.35 4.638 1.725 3.288 5.096 6.404 9.079 7.029 3.625.567 6.65-1.083 7.738-1.667 14.225-7.608 18.454-4.529 37.842-16.404 11.633-7.125 23.563-14.429 34.833-28.788 2.954-3.763 12.004-15.825 17.75-33.742 3.021-9.429 4.083-17.217 4.804-22.683.942-7.171 1.908-19.417.992-29.788-.167-1.875-.642-6.442.775-11.963.538-2.088 1.229-3.863 1.946-5.7 1.863-4.779 3.713-8.204 4.454-9.583 3.146-5.875 5.554-10.95 7.742-15.571 6.846-14.446 6.004-16.158 9.163-20.454 1.171-1.596 2.05-3.625 3.804-7.679.558-1.304 1.004-2.421.621-3.658-.579-1.863-2.821-3.3-4.496-2.904-1.104.263-1.65 1.238-2.333 2.263-1.558 2.325-3.883 4.038-5.717 6.158-.046.054-4.842 5.238-14.429 15.596l-13.429 14.508-7.713 8.346-3.446 4.438z"/><path id="c" d="M1336.37 411.645a142.14 142.14 0 0 0-14.038 5.129c-13.888 5.921-23.558 12.671-29.933 17.171-7.25 5.121-12.063 8.517-17.892 14.233-13.067 12.813-19.45 25.713-20.921 28.788-5.688 11.888-7.104 21.213-9.342 35.983 0 0-2.383 15.717.796 46.304.083.808.288 2.629 1.346 4.642 1.729 3.283 5.1 6.4 9.083 7.025 3.625.567 6.65-1.079 7.738-1.663 14.225-7.613 18.458-4.533 37.842-16.408 11.633-7.125 23.563-14.429 34.838-28.788 2.95-3.758 12-15.825 17.746-33.738 3.021-9.433 4.083-17.217 4.804-22.688.942-7.171 1.913-19.413.992-29.788-.167-1.875-.642-6.442.775-11.963.538-2.088 1.229-3.863 1.946-5.7 1.863-4.779 3.713-8.204 4.454-9.583 3.146-5.875 5.554-10.95 7.742-15.567 6.846-14.45 6.004-16.163 9.163-20.454 1.171-1.596 2.05-3.625 3.804-7.683.563-1.304 1.004-2.421.621-3.654-.575-1.863-2.821-3.304-4.496-2.908-1.104.263-1.65 1.242-2.333 2.263-1.558 2.329-3.883 4.038-5.717 6.158-.046.058-4.842 5.238-14.429 15.6l-13.425 14.504-7.717 8.346-3.446 4.438z"/><path id="d" d="M1336.37 559.727a142.14 142.14 0 0 0-14.038 5.129c-13.888 5.921-23.558 12.671-29.933 17.171-7.25 5.121-12.063 8.517-17.892 14.233-13.067 12.813-19.45 25.713-20.921 28.788-5.688 11.883-7.104 21.208-9.342 35.983 0 0-2.383 15.717.796 46.304.083.808.288 2.625 1.346 4.638 1.729 3.288 5.1 6.404 9.083 7.029 3.625.567 6.65-1.083 7.738-1.667 14.225-7.608 18.458-4.529 37.842-16.404 11.633-7.125 23.563-14.429 34.838-28.788 2.95-3.763 12-15.825 17.746-33.742 3.021-9.429 4.083-17.217 4.804-22.683.942-7.171 1.913-19.417.992-29.788-.167-1.879-.642-6.442.775-11.963.538-2.088 1.229-3.863 1.946-5.7 1.863-4.779 3.713-8.204 4.454-9.583 3.146-5.875 5.554-10.95 7.742-15.571 6.846-14.446 6.004-16.158 9.163-20.454 1.171-1.596 2.05-3.625 3.804-7.683.563-1.3 1.004-2.417.621-3.654-.575-1.863-2.821-3.304-4.496-2.904-1.104.263-1.65 1.238-2.333 2.263-1.558 2.325-3.883 4.038-5.717 6.158-.046.054-4.842 5.238-14.429 15.596l-13.425 14.508-7.717 8.346-3.446 4.438z"/><path id="e" d="M1201.54 858.549c.042 1.092.175 2.738.638 4.679 1.808 7.588 6.833 12.121 8.296 13.4 2.854 2.5 5.504 3.763 7.021 4.471 2.367 1.1 13.633 6.008 25.954 1.275a30.1 30.1 0 0 0 7.867-4.467c2.133-1.688 9.804-8.242 10.642-18.296a21.86 21.86 0 0 0 0-3.617l-.004-102.954a17.83 17.83 0 0 0-.213-3.192c-1.267-8.054-7.838-13.296-11.7-16.379-2.963-2.363-4.642-3.704-7.446-4.892-9.571-4.058-18.846-.671-21.271.213-4.979 1.817-8.254 4.404-9.363 5.317-7.067 5.858-9.563 13.254-10.421 16.379v108.063z"/><path id="f" d="M1529.21 368.009c-2.85 1.35 2.504 14.008 7.171 39.758 3.1 17.1 2.567 21.588 6.517 35.196 5.4 18.592 10.354 23.838 14.992 26.725 6.671 4.15 13.9 3.963 16.946 3.913 2.354-.042 12.842-.233 21.046-7.208 4.271-3.629 7.108-8.408 11.192-25.029 3.804-15.513 4.371-23.742 6.633-37.35 4.4-26.517 8.979-35.875 6.825-36.975-2.467-1.258-12.15 9.129-45.125 63.329l-11.379-17.633c-8.65-13.563-13.604-21.7-21.825-31.95-6.683-8.338-11-13.721-12.992-12.775"/><path id="g" d="M1529.21 368.009c-2.85 1.35 2.504 14.008 7.171 39.758 3.1 17.1 2.567 21.588 6.517 35.196 5.4 18.592 10.354 23.838 14.992 26.725 6.671 4.15 13.9 3.963 16.946 3.913 2.354-.042 12.842-.233 21.046-7.208 4.271-3.629 7.108-8.408 11.192-25.029 3.804-15.513 4.371-23.742 6.633-37.35 4.4-26.517 8.979-35.875 6.825-36.975-2.467-1.258-12.15 9.129-45.125 63.329l-11.379-17.633c-8.65-13.563-13.604-21.7-21.825-31.95-6.683-8.338-11-13.721-12.992-12.775z"/><path id="h" d="M1546.68 386.587l28.725 43.783 27.838-43.783a90.71 90.71 0 0 0 0-12.954c-.683-9.538-1.975-29.033-14.808-44.271-3.646-4.333-7.75-9.067-13.446-9.088-1.417-.008-6.917.079-13.996 9.679-10.2 13.825-14.096 31.333-14.313 42.683v13.95z"/><path id="i" d="M1569.61 473.618h11.117l.054 49.088c1.229-3.888 2.504-10.613 4.754-13.608 9.733-12.971 22.088-18.333 33.804-23.583l46.267-21.483c.667-.188 1.788-.388 3.004 0 2.517.804 3.663 3.55 3.904 5.408.179 1.367-.088 2.5-.45 3.604-.65 2.008-2.1 5.45-5.558 9.317l-22.983 37.104c-.95 1.617-3.263 5.579-7.063 10.367-1.2 1.513-4.054 5.079-7.958 8.713-1.433 1.329-7.9 7.217-18.179 12.017-13.171 6.15-24.821 6.883-30.946 7.213-6.996.371-17.867.846-30.946-3.604-13.258-4.517-22.442-11.933-27.792-17.129-2.313-2.529-5.688-6.438-9.313-11.567-3.275-4.629-3.729-5.967-9.013-14.571-7.038-11.442-7.104-10.492-11.721-18.479-2.283-3.95-3.954-7.108-7.813-13.517l-4.054-6.613c-.163-.404-1.021-2.708.15-5.108 1.404-2.879 4.513-3.388 4.958-3.454 2.567-.375 4.492.883 4.958 1.204l21.179 10.213 25.388 12.017c.917.367 3.704 1.463 7.213 3.304 3.167 1.671 5.542 3.229 6.758 4.058 1.675 1.142 2.804 2.013 4.658 3.454 2.888 2.242 4.329 3.367 6.158 5.108.738.704 3.975 4.75 5.704 7.742 1.229 2.125 3.283 10.067 4.475 12.929l-.717-50.142z"/><path id="j" d="M327.444 903.526h-4.339l-7.494-20.289h-.114l-6.649 20.289h-4.509l-8.566-26.374h4.847l6.031 20.288h.113l6.819-20.288h4.622l6.932 20.288h.113l5.974-20.288h4.734l-8.511 26.374z"/><path id="k" d="M424.998 897.102c.939 0 1.737.327 2.395.985a3.26 3.26 0 0 1 .987 2.395c0 .94-.348 1.739-1.042 2.397s-1.475.985-2.339.985-1.643-.329-2.339-.985-1.042-1.456-1.042-2.397a3.26 3.26 0 0 1 .987-2.395c.656-.658 1.456-.985 2.395-.985"/><path id="l" d="M437.002 883.406l-.113-3.382-.113-2.873h4.17l.057 2.14.057 2.199h.113c.3-.641.722-1.259 1.268-1.861s1.193-1.136 1.945-1.605a10.35 10.35 0 0 1 2.537-1.127c.939-.282 1.952-.423 3.042-.423 1.427 0 2.622.178 3.579.535s1.754.79 2.395 1.297 1.136 1.051 1.493 1.633l.874 1.552c.977-1.579 2.104-2.81 3.38-3.692s2.932-1.325 4.961-1.325c1.879 0 3.456.255 4.734.762s2.31 1.238 3.1 2.196 1.352 2.125 1.69 3.496.507 2.9.507 4.592v16.005h-4.395v-15.78c0-.902-.095-1.784-.284-2.648s-.525-1.636-1.013-2.312-1.146-1.219-1.972-1.635-1.881-.62-3.157-.62a6.33 6.33 0 0 0-2.649.565c-.826.376-1.55.902-2.17 1.577s-1.108 1.493-1.465 2.452-.535 2.019-.535 3.184v15.216h-4.395V888.59c0-2.93-.397-5.004-1.184-6.229-.79-1.219-2.085-1.83-3.889-1.83-1.429 0-2.658.244-3.692.734s-1.879 1.181-2.535 2.085-1.146 1.971-1.467 3.21-.478 2.613-.478 4.114v12.85h-4.397v-20.12z"/><path id="m" d="M485.413 877.152h4.397v26.374h-4.397v-26.374zm-1.015-10.313a3.13 3.13 0 0 1 .93-2.255c.62-.639 1.382-.959 2.284-.959a3.05 3.05 0 0 1 2.281.959c.62.639.932 1.39.932 2.255 0 .939-.301 1.709-.902 2.31s-1.371.9-2.31.9-1.711-.298-2.312-.9-.902-1.371-.902-2.31"/><path id="n" d="M517.311 883.744c-.94-1.127-1.953-1.945-3.044-2.452s-2.293-.76-3.607-.76c-1.465 0-2.762.253-3.887.76s-2.057 1.212-2.79 2.114-1.288 1.945-1.664 3.127-.563 2.45-.563 3.804.216 2.62.648 3.804a10.15 10.15 0 0 0 1.804 3.129c.769.9 1.699 1.603 2.79 2.111s2.31.762 3.662.762c2.894 0 5.129-1.089 6.707-3.269l3.269 3.1c-1.278 1.467-2.781 2.537-4.509 3.214s-3.55 1.013-5.467 1.013c-2.028 0-3.887-.338-5.579-1.013s-3.127-1.635-4.312-2.876-2.104-2.703-2.76-4.395-.987-3.552-.987-5.579c0-1.991.329-3.832.987-5.524s1.586-3.155 2.79-4.395 2.639-2.206 4.312-2.904 3.522-1.041 5.55-1.041c1.953 0 3.804.338 5.552 1.015s3.278 1.728 4.594 3.155l-3.494 3.1z"/><path id="o" d="M525.707 883.406l-.113-3.382-.113-2.873h4.17l.057 2.14.057 2.199h.113c.3-.641.722-1.259 1.268-1.861s1.193-1.136 1.945-1.605a10.35 10.35 0 0 1 2.537-1.127c.939-.282 1.952-.423 3.042-.423a7.53 7.53 0 0 1 .902.055c.3.038.601.114.9.225l-.281 4.452c-.753-.223-1.541-.338-2.367-.338-2.705 0-4.67.874-5.889 2.622s-1.832 4.142-1.832 7.184v12.85h-4.397v-20.12z"/><path id="p" d="M547.743 890.338c0 1.392.216 2.677.648 3.86s1.061 2.22 1.887 3.101 1.813 1.577 2.959 2.085 2.433.76 3.861.76 2.713-.253 3.86-.76a9.01 9.01 0 0 0 2.959-2.085c.826-.881 1.455-1.917 1.887-3.101s.648-2.468.648-3.86-.216-2.677-.648-3.86-1.061-2.216-1.887-3.101c-.828-.88-1.815-1.577-2.959-2.085s-2.433-.76-3.86-.76-2.715.253-3.861.76-2.133 1.205-2.959 2.085c-.826.885-1.455 1.919-1.887 3.101s-.648 2.471-.648 3.86m-4.734 0c0-2.064.357-3.945 1.07-5.635s1.692-3.146 2.932-4.367 2.724-2.17 4.452-2.847 3.607-1.015 5.636-1.015 3.907.338 5.635 1.015 3.212 1.626 4.454 2.847 2.215 2.677 2.93 4.367 1.07 3.571 1.07 5.635-.357 3.945-1.07 5.636-1.692 3.146-2.93 4.367-2.726 2.17-4.454 2.847-3.607 1.015-5.635 1.015-3.908-.338-5.636-1.015-3.212-1.626-4.452-2.847-2.218-2.677-2.932-4.367-1.07-3.569-1.07-5.636"/><path id="q" d="M578.007 883.406l-.113-3.382-.113-2.873h4.17l.057 2.14.057 2.199h.113c.3-.641.722-1.259 1.268-1.861s1.193-1.136 1.945-1.605a10.35 10.35 0 0 1 2.537-1.127c.939-.282 1.952-.423 3.042-.423 1.728 0 3.221.261 4.48.788s2.301 1.261 3.129 2.199 1.436 2.076 1.832 3.408.59 2.791.59 4.369v16.288h-4.395V887.69c0-2.218-.49-3.964-1.465-5.243s-2.5-1.915-4.566-1.915c-1.429 0-2.658.244-3.692.734s-1.879 1.181-2.535 2.085-1.146 1.971-1.467 3.21-.478 2.613-.478 4.114v12.85h-4.397v-20.12z"/><path id="r" d="M632.336 897.271l.113 3.38.113 2.874h-4.17l-.057-2.14-.055-2.199h-.114c-.301.641-.724 1.259-1.268 1.861s-1.193 1.136-1.945 1.603-1.597.847-2.537 1.129-1.953.423-3.042.423c-1.728 0-3.223-.263-4.48-.79s-2.301-1.259-3.127-2.197-1.437-2.076-1.834-3.41-.59-2.79-.59-4.369v-16.286h4.397v15.836c0 2.218.488 3.964 1.465 5.242s2.497 1.915 4.565 1.915c1.427 0 2.658-.242 3.692-.732s1.877-1.183 2.535-2.085 1.146-1.971 1.467-3.212.478-2.611.478-4.114v-12.849h4.397v20.12z"/><path id="s" d="M655.104 880.87h-7.777v13.188l.055 2.395c.038.734.187 1.373.452 1.917s.656.978 1.181 1.295 1.28.48 2.256.48c.637 0 1.295-.074 1.972-.225s1.316-.376 1.915-.677l.17 4.002c-.753.338-1.588.584-2.507.734a16.47 16.47 0 0 1-2.622.225c-1.577 0-2.836-.208-3.777-.622s-1.671-.994-2.196-1.747-.874-1.68-1.044-2.79-.253-2.338-.253-3.69V880.87h-5.749v-3.718h5.749v-7.498h4.397v7.498h7.777v3.718z"/><path id="t" d="M660.514 883.406l-.113-3.382-.113-2.873h4.17l.057 2.14.057 2.199h.111c.301-.641.724-1.259 1.269-1.861s1.191-1.136 1.945-1.605 1.597-.847 2.537-1.127 1.952-.423 3.041-.423a7.56 7.56 0 0 1 .904.055c.3.038.601.114.9.225l-.282 4.452a8.26 8.26 0 0 0-2.367-.338c-2.703 0-4.668.874-5.887 2.622s-1.832 4.142-1.832 7.184v12.85h-4.397v-20.12z"/><path id="u" d="M680.745 877.152h4.397v26.374h-4.397v-26.374zm-1.015-10.313c0-.864.312-1.616.93-2.255a3.06 3.06 0 0 1 2.284-.959c.9 0 1.662.32 2.282.959a3.13 3.13 0 0 1 .93 2.255c0 .939-.301 1.709-.902 2.31s-1.371.9-2.31.9-1.711-.298-2.31-.9-.904-1.371-.904-2.31"/><path id="v" d="M713.658 887.973c-.074-2.256-.809-4.059-2.197-5.411s-3.307-2.029-5.749-2.029-4.416.677-5.917 2.029-2.405 3.155-2.705 5.411h16.568zm3.777 10.764c-1.577 2.029-3.307 3.448-5.184 4.255s-4.057 1.212-6.539 1.212c-2.066 0-3.926-.367-5.579-1.1s-3.053-1.718-4.197-2.959-2.029-2.703-2.649-4.395-.93-3.494-.93-5.411c0-2.028.339-3.896 1.015-5.607s1.616-3.174 2.817-4.395 2.63-2.17 4.284-2.847 3.456-1.015 5.41-1.015c1.841 0 3.531.31 5.072.93s2.866 1.522 3.972 2.705 1.964 2.632 2.566 4.341.9 3.654.9 5.832v1.408H697.09c.074 1.129.346 2.21.816 3.243s1.081 1.934 1.834 2.703a8.44 8.44 0 0 0 2.648 1.832c1.015.45 2.123.675 3.325.675 1.917 0 3.531-.338 4.847-1.015s2.499-1.669 3.552-2.985l3.325 2.592z"/><path id="w" d="M725.21 883.406l-.111-3.382-.114-2.873h4.17l.059 2.14.055 2.199h.113c.3-.641.722-1.259 1.269-1.861.542-.599 1.191-1.136 1.943-1.605a10.38 10.38 0 0 1 2.537-1.127c.939-.282 1.952-.423 3.042-.423 1.728 0 3.223.261 4.48.788s2.301 1.261 3.129 2.199 1.437 2.076 1.832 3.408.59 2.791.59 4.369v16.288h-4.395V887.69c0-2.218-.488-3.964-1.465-5.243s-2.5-1.915-4.565-1.915c-1.429 0-2.66.244-3.692.734a6.5 6.5 0 0 0-2.537 2.085c-.658.9-1.146 1.971-1.467 3.21s-.478 2.613-.478 4.114v12.85h-4.397v-20.12z"/><path id="x" d="M770.975 880.87h-7.777v13.188l.055 2.395c.038.734.187 1.373.452 1.917s.656.978 1.183 1.295 1.278.48 2.255.48c.637 0 1.295-.074 1.972-.225s1.316-.376 1.915-.677l.17 4.002c-.752.338-1.586.584-2.507.734s-1.794.225-2.62.225c-1.579 0-2.838-.208-3.777-.622s-1.673-.994-2.197-1.747-.874-1.68-1.044-2.79-.253-2.338-.253-3.69V880.87h-5.749v-3.718h5.749v-7.498h4.397v7.498h7.777v3.718z"/><path id="y" d="M780.049 897.102c.939 0 1.737.327 2.395.985s.985 1.456.985 2.395a3.18 3.18 0 0 1-1.041 2.397c-.698.656-1.477.985-2.339.985s-1.645-.329-2.341-.985-1.041-1.456-1.041-2.397.327-1.737.985-2.395a3.26 3.26 0 0 1 2.397-.985"/><path id="z" d="M792.616 896.595c.862 1.089 1.811 1.953 2.847 2.592 1.03.639 2.338.958 3.915.958.677 0 1.361-.074 2.057-.225s1.323-.395 1.889-.732 1.015-.76 1.352-1.268.507-1.119.507-1.832-.161-1.297-.481-1.747a4.2 4.2 0 0 0-1.268-1.157c-.526-.317-1.126-.571-1.803-.76l-2.085-.506-3.552-.904c-1.126-.338-2.114-.779-2.959-1.323a6.25 6.25 0 0 1-2.028-2.114c-.507-.864-.76-1.972-.76-3.325 0-1.276.281-2.405.845-3.382s1.314-1.784 2.255-2.423 1.99-1.127 3.155-1.465 2.367-.507 3.607-.507c1.879 0 3.616.376 5.214 1.126s2.845 1.974 3.747 3.664l-3.662 2.424c-.565-.939-1.306-1.7-2.227-2.282s-2.038-.874-3.354-.874c-.601 0-1.21.076-1.832.225s-1.172.376-1.662.677-.892.686-1.21 1.155-.48 1.004-.48 1.607c0 .563.177 1.041.535 1.436s.847.743 1.465 1.042a12.96 12.96 0 0 0 2.142.791l2.509.563c1.164.225 2.272.518 3.325.873s1.972.836 2.76 1.437 1.411 1.352 1.861 2.253.675 2.012.675 3.326c0 1.505-.301 2.781-.9 3.832s-1.401 1.908-2.397 2.565-2.123 1.138-3.38 1.437a16.55 16.55 0 0 1-3.861.452c-2.253 0-4.199-.35-5.834-1.044s-3.108-1.981-4.424-3.86l3.496-2.705z"/><path id="AA" d="M839.054 897.271l.113 3.38.113 2.874h-4.17l-.057-2.14-.057-2.199h-.111c-.301.641-.724 1.259-1.269 1.861s-1.193 1.136-1.945 1.603-1.598.847-2.537 1.129-1.952.423-3.041.423c-1.73 0-3.224-.263-4.481-.79s-2.301-1.259-3.129-2.197-1.437-2.076-1.832-3.41-.59-2.79-.59-4.369v-16.286h4.397v15.836c0 2.218.487 3.964 1.463 5.242s2.5 1.915 4.566 1.915c1.427 0 2.656-.242 3.692-.732s1.879-1.183 2.537-2.085 1.145-1.971 1.465-3.212.478-2.611.478-4.114v-12.849h4.397v20.12z"/><path id="AB" d="M851.564 890.338c0 1.392.216 2.677.649 3.86s1.06 2.22 1.887 3.101 1.813 1.577 2.959 2.085 2.431.76 3.86.76 2.715-.253 3.861-.76 2.132-1.202 2.958-2.085 1.456-1.917 1.889-3.101.648-2.468.648-3.86-.216-2.677-.648-3.86a9.05 9.05 0 0 0-1.889-3.101c-.826-.88-1.813-1.577-2.958-2.085s-2.433-.76-3.861-.76-2.715.253-3.86.76-2.133 1.205-2.959 2.085c-.828.885-1.456 1.919-1.887 3.101s-.649 2.471-.649 3.86m-4.395-13.186h4.395v3.832h.113c1.203-1.429 2.601-2.537 4.199-3.325s3.354-1.184 5.269-1.184c2.068 0 3.953.346 5.666 1.042 1.707.696 3.164 1.662 4.365 2.902s2.142 2.705 2.819 4.397 1.015 3.532 1.015 5.522-.338 3.834-1.015 5.522-1.607 3.158-2.79 4.398-2.584 2.208-4.199 2.9-3.345 1.044-5.184 1.044c-2.367 0-4.445-.518-6.229-1.552s-3.089-2.3-3.917-3.803h-.113v17.527h-4.395v-39.224z"/><path id="AC" d="M919.475 890.338c0 1.392.215 2.677.648 3.86s1.061 2.22 1.889 3.101a8.95 8.95 0 0 0 2.958 2.085c1.146.507 2.433.76 3.86.76s2.715-.253 3.861-.76 2.132-1.202 2.959-2.085 1.456-1.917 1.887-3.101.649-2.468.649-3.86-.216-2.677-.649-3.86-1.063-2.216-1.887-3.101c-.828-.88-1.813-1.577-2.959-2.085s-2.433-.76-3.861-.76-2.713.253-3.86.76a9 9 0 0 0-2.958 2.085c-.828.885-1.458 1.919-1.889 3.101s-.648 2.471-.648 3.86m-4.734 0c0-2.064.357-3.945 1.072-5.635s1.688-3.146 2.93-4.367 2.722-2.17 4.452-2.847 3.605-1.015 5.635-1.015 3.908.338 5.636 1.015 3.214 1.626 4.454 2.847 2.216 2.677 2.93 4.367 1.07 3.571 1.07 5.635-.357 3.945-1.07 5.636-1.692 3.146-2.93 4.367-2.726 2.17-4.454 2.847-3.607 1.015-5.636 1.015-3.907-.338-5.635-1.015-3.212-1.626-4.452-2.847-2.218-2.677-2.93-4.367-1.072-3.569-1.072-5.636"/><path id="AD" d="M949.738 883.406l-.111-3.382-.114-2.873h4.17l.057 2.14.057 2.199h.111c.301-.641.724-1.259 1.269-1.861s1.191-1.136 1.945-1.605 1.597-.847 2.537-1.127 1.952-.423 3.042-.423a7.53 7.53 0 0 1 .902.055c.3.038.601.114.9.225l-.282 4.452c-.75-.223-1.539-.338-2.365-.338-2.705 0-4.668.874-5.889 2.622s-1.832 4.142-1.832 7.184v12.85h-4.397v-20.12z"/><path id="AE" d="M298.226 637.273h52.632l34.866 49.301h1.777l34.866-49.301h52.634v155.455h-51.967v-81.282h-1.332l-34.201 45.084h-1.777l-34.199-45.084h-1.333v81.282h-51.966V637.273z"/><path id="AF" d="M588.036 735.431l-15.101-57.074h-3.553l-15.101 57.074h33.756zm11.103 41.529h-55.964l-4.22 15.768h-53.964l45.304-155.455h81.725l45.302 155.455h-53.964l-4.22-15.768z"/><path id="AG" d="M775.908 686.129c0-5.33-3.553-7.773-8.438-7.773h-45.971v15.99h45.971c4.885 0 8.438-3.332 8.438-8.216m51.967.443c0 27.318-25.094 48.857-52.856 48.857h-53.521v57.297h-51.966V637.272h107.708c31.534 0 50.634 18.21 50.634 49.301"/><path id="AH" d="M838.535 751.642h81.06c6.883 0 10.215-3.108 10.215-8.216 0-4.885-3.332-7.995-10.438-7.995h-36.864c-25.985 0-47.082-17.766-47.082-49.079 0-35.978 24.651-49.079 49.524-49.079h91.94v41.084h-79.282c-5.997 0-10.215 2.22-10.215 7.773 0 5.773 4.218 8.216 10.215 8.216h34.644c29.759 0 49.524 17.545 49.524 48.857 0 29.536-22.208 49.524-51.077 49.524h-92.83l.667-41.086z"/></defs></svg>