<svg width="128" height="32" viewBox="0 0 128 32" fill="none" xmlns="http://www.w3.org/2000/svg">
<path d="M57.4688 9.32001H62.7754L66.2888 14.2889H66.4688L69.9888 9.32001H75.2932V24.9867H70.0487V16.7867H69.9154L66.4688 21.32H66.2888L62.8421 16.7867H62.7065V24.9778H57.4688V9.32001Z" fill="white"/>
<path d="M87.7977 23.3889H82.1577L81.731 24.9778H76.2932L80.8599 9.32001H89.0999L93.6665 24.9867H88.2221L87.7977 23.3889ZM86.6866 19.2045L85.1643 13.4511H84.8065L83.2843 19.2045H86.6866Z" fill="white"/>
<path d="M110.851 14.28C110.851 17.0333 108.322 19.2045 105.518 19.2045H100.129V24.9822H94.8911V9.32001H105.749C108.927 9.32001 110.851 11.1467 110.851 14.28ZM105.613 14.2356C105.613 13.6978 105.256 13.4511 104.762 13.4511H100.129V15.0622H104.762C104.874 15.0687 104.985 15.052 105.09 15.0131C105.194 14.9742 105.29 14.914 105.37 14.8362C105.45 14.7585 105.513 14.6649 105.555 14.5615C105.597 14.4581 105.617 14.3471 105.613 14.2356V14.2356Z" fill="white"/>
<path d="M111.924 20.8378H120.096C120.789 20.8378 121.124 20.5244 121.124 20.0089C121.124 19.4933 120.789 19.2044 120.073 19.2044H116.356C113.738 19.2044 111.611 17.4133 111.611 14.2578C111.611 10.6311 114.096 9.3111 116.602 9.3111H125.869V13.4511H117.869C117.264 13.4511 116.84 13.6733 116.84 14.2355C116.84 14.7978 117.264 15.0622 117.869 15.0622H121.362C124.36 15.0622 126.353 16.84 126.353 19.9867C126.353 22.9644 124.116 24.9778 121.204 24.9778H111.849L111.924 20.8378Z" fill="white"/>
<path d="M60.7422 30.6266H60.2978L59.5422 28.5822L58.8755 30.6266H58.4311L57.5667 27.96H58.0555L58.6644 30.0044H58.6555L59.3422 27.96H59.8089L60.5066 30.0044H60.5178L61.12 27.96H61.5978L60.7422 30.6266Z" fill="white"/>
<path d="M64.9512 30.6266H64.5067L63.7512 28.5822L63.0845 30.6266H62.6401L61.7756 27.96H62.2645L62.8734 30.0044H62.8779L63.5645 27.96H64.0312L64.729 30.0044H64.7401L65.3423 27.96H65.8201L64.9512 30.6266Z" fill="white"/>
<path d="M69.1602 30.6266H68.7157L67.9602 28.5822L67.2935 30.6266H66.8491L65.9846 27.96H66.4735L67.0824 30.0044H67.0935L67.7802 27.96H68.2468L68.9446 30.0044L69.5468 27.96H70.0246L69.1602 30.6266Z" fill="white"/>
<path d="M70.5732 29.9866C70.664 29.9866 70.751 30.0227 70.8152 30.0869C70.8794 30.151 70.9154 30.2381 70.9154 30.3288C70.9161 30.3742 70.9069 30.4191 70.8884 30.4605C70.87 30.502 70.8428 30.5389 70.8088 30.5688C70.7781 30.6003 70.7415 30.6253 70.701 30.6425C70.6606 30.6597 70.6171 30.6686 70.5732 30.6688C70.4846 30.6679 70.3999 30.632 70.3377 30.5688C70.3043 30.5385 70.2778 30.5014 70.2598 30.46C70.2418 30.4186 70.2327 30.3739 70.2332 30.3288C70.2324 30.2838 70.2408 30.239 70.258 30.1973C70.2752 30.1557 70.3008 30.118 70.3332 30.0866C70.3642 30.0543 70.4014 30.0287 70.4427 30.0115C70.484 29.9943 70.5285 29.9858 70.5732 29.9866V29.9866Z" fill="white"/>
<path d="M71.7846 28.5977C71.7846 28.4777 71.7801 28.3644 71.7712 28.2577C71.7712 28.1511 71.7712 28.0555 71.7712 27.9689H72.1935C72.1935 28.04 72.1935 28.1111 72.1935 28.1911C72.1935 28.2711 72.1935 28.3355 72.1935 28.4133H72.2112C72.2436 28.3449 72.2863 28.2819 72.3379 28.2266C72.396 28.1646 72.4617 28.1101 72.5335 28.0644C72.6135 28.016 72.6994 27.978 72.789 27.9511C73.0078 27.8916 73.239 27.8955 73.4557 27.9622C73.5421 27.9931 73.623 28.0373 73.6957 28.0933C73.7552 28.139 73.8063 28.1946 73.8468 28.2577C73.8823 28.3177 73.9135 28.3689 73.9357 28.4133C74.0221 28.2674 74.1379 28.1411 74.2757 28.0422C74.4248 27.9476 74.5993 27.9011 74.7757 27.9089C74.9384 27.9047 75.1005 27.9311 75.2535 27.9866C75.3747 28.0325 75.4819 28.109 75.5646 28.2089C75.6476 28.3122 75.7061 28.433 75.7357 28.5622C75.771 28.7137 75.7881 28.8689 75.7868 29.0244V30.6377H75.3423V29.0466C75.3417 28.957 75.332 28.8677 75.3135 28.78C75.2937 28.7001 75.259 28.6247 75.2112 28.5577C75.1587 28.4877 75.0901 28.4313 75.0112 28.3933C74.9117 28.3479 74.8028 28.3266 74.6935 28.3311C74.6015 28.3311 74.5106 28.3508 74.4268 28.3889C74.343 28.4262 74.2675 28.4799 74.2046 28.5466C74.1397 28.6186 74.0892 28.7024 74.0557 28.7933C74.0191 28.8967 74.001 29.0058 74.0023 29.1155V30.6489H73.5579V29.1444C73.575 28.9278 73.5336 28.7106 73.4379 28.5155C73.3938 28.454 73.3347 28.4048 73.2663 28.3725C73.1978 28.3402 73.1223 28.326 73.0468 28.3311C72.9185 28.3278 72.791 28.3528 72.6735 28.4044C72.5706 28.4553 72.4825 28.5318 72.4179 28.6266C72.3481 28.724 72.2982 28.8343 72.2712 28.9511C72.237 29.0861 72.2206 29.2251 72.2223 29.3644V30.66H71.7779L71.7846 28.5977Z" fill="white"/>
<path d="M76.5601 26.9289C76.5606 26.8454 76.5942 26.7655 76.6535 26.7067C76.6821 26.6763 76.7165 26.652 76.7546 26.6352C76.7928 26.6184 76.834 26.6095 76.8757 26.6089C76.9174 26.6092 76.9587 26.618 76.9969 26.6348C77.0351 26.6517 77.0695 26.6761 77.0979 26.7067C77.158 26.7681 77.1917 26.8507 77.1917 26.9367C77.1917 27.0227 77.158 27.1052 77.0979 27.1667C77.067 27.1966 77.0305 27.22 76.9904 27.2356C76.9503 27.2513 76.9076 27.2588 76.8646 27.2578C76.7814 27.2579 76.7015 27.2251 76.6424 27.1667C76.6133 27.1346 76.591 27.0971 76.5769 27.0562C76.5628 27.0153 76.5571 26.972 76.5601 26.9289ZM76.6624 27.9689H77.1068V30.6356H76.6624V27.9689Z" fill="white"/>
<path d="M79.8778 28.6333C79.7947 28.5298 79.6901 28.4457 79.5712 28.3867C79.4568 28.3343 79.3324 28.3078 79.2067 28.3089C79.0723 28.3067 78.939 28.3332 78.8156 28.3867C78.7053 28.4373 78.6085 28.5135 78.5334 28.6089C78.4589 28.7029 78.4024 28.8099 78.3667 28.9244C78.3278 29.0488 78.3083 29.1785 78.3089 29.3089C78.3079 29.4393 78.3305 29.5688 78.3756 29.6911C78.4163 29.8062 78.4773 29.9131 78.5556 30.0067C78.6324 30.1004 78.7287 30.1762 78.8378 30.2289C78.9536 30.2817 79.0795 30.3083 79.2067 30.3067C79.3366 30.311 79.4655 30.283 79.5818 30.2252C79.6982 30.1674 79.7984 30.0816 79.8734 29.9756L80.2045 30.2889C80.0807 30.4318 79.9245 30.543 79.7489 30.6133C79.391 30.7491 78.9958 30.7491 78.6378 30.6133C78.4739 30.549 78.3261 30.4496 78.2045 30.3222C78.0823 30.1944 77.9871 30.0432 77.9245 29.8778C77.7963 29.5185 77.7963 29.1259 77.9245 28.7667C77.9873 28.6017 78.0831 28.4514 78.2062 28.3249C78.3293 28.1984 78.4769 28.0984 78.6401 28.0311C78.8181 27.9601 79.0084 27.9246 79.2001 27.9267C79.3915 27.9251 79.5815 27.9598 79.7601 28.0289C79.9368 28.0973 80.0951 28.2062 80.2223 28.3467L79.8778 28.6333Z" fill="white"/>
<path d="M80.7246 28.5978C80.7246 28.4778 80.7202 28.3644 80.7113 28.2578C80.7113 28.1511 80.7002 28.0555 80.7002 27.9689H81.1202C81.1202 28.04 81.1202 28.1111 81.1202 28.1911C81.1202 28.2711 81.1202 28.3355 81.1202 28.4133H81.1313C81.1636 28.3449 81.2063 28.2819 81.258 28.2267C81.3161 28.1646 81.3818 28.1101 81.4535 28.0644C81.5336 28.016 81.6195 27.978 81.7091 27.9511C81.8087 27.922 81.912 27.9078 82.0157 27.9089C82.0461 27.9066 82.0765 27.9066 82.1069 27.9089C82.1381 27.9118 82.1688 27.9193 82.198 27.9311L82.1691 28.3755C82.092 28.3522 82.0119 28.3403 81.9313 28.34C81.8181 28.3298 81.7041 28.3488 81.6002 28.3951C81.4964 28.4413 81.4061 28.5134 81.338 28.6044C81.2042 28.8215 81.1399 29.0742 81.1535 29.3289V30.6244H80.7091L80.7246 28.5978Z" fill="white"/>
<path d="M82.4667 29.2978C82.4637 29.1027 82.5008 28.9091 82.5756 28.7289C82.644 28.5628 82.7444 28.4118 82.8712 28.2844C82.9984 28.1598 83.1496 28.0623 83.3156 27.9978C83.4963 27.9279 83.6886 27.8932 83.8823 27.8956C84.0767 27.8934 84.2697 27.9281 84.4512 27.9978C84.617 28.0627 84.7681 28.1602 84.8956 28.2844C85.0216 28.4124 85.1219 28.5632 85.1912 28.7289C85.3343 29.0939 85.3343 29.4995 85.1912 29.8644C85.1231 30.0307 85.0226 30.1818 84.8956 30.3089C84.7687 30.4344 84.6174 30.5327 84.4512 30.5978C84.2694 30.6664 84.0766 30.7011 83.8823 30.7C83.6887 30.7015 83.4965 30.6668 83.3156 30.5978C83.1491 30.5333 82.9977 30.4349 82.8712 30.3089C82.7437 30.1822 82.6432 30.031 82.5756 29.8644C82.5008 29.685 82.4637 29.4921 82.4667 29.2978V29.2978ZM82.9445 29.2978C82.9436 29.4301 82.9654 29.5617 83.0089 29.6867C83.0514 29.802 83.1164 29.9078 83.2001 29.9978C83.282 30.0926 83.3836 30.1684 83.4978 30.22C83.6211 30.2713 83.7532 30.2978 83.8867 30.2978C84.0202 30.2978 84.1524 30.2713 84.2756 30.22C84.3898 30.1684 84.4914 30.0926 84.5734 29.9978C84.6579 29.9084 84.723 29.8025 84.7645 29.6867C84.8535 29.435 84.8535 29.1605 84.7645 28.9089C84.723 28.7924 84.6579 28.6858 84.5734 28.5956C84.4896 28.5061 84.3882 28.435 84.2756 28.3867C84.1524 28.3353 84.0202 28.3089 83.8867 28.3089C83.7532 28.3089 83.6211 28.3353 83.4978 28.3867C83.3852 28.435 83.2839 28.5061 83.2001 28.5956C83.1163 28.6864 83.0513 28.7929 83.0089 28.9089C82.9653 29.0339 82.9435 29.1654 82.9445 29.2978V29.2978Z" fill="white"/>
<path d="M85.9888 28.5977C85.9888 28.4777 85.9844 28.3644 85.9755 28.2577C85.9755 28.1511 85.9644 28.0555 85.9644 27.9689H86.3844C86.3844 28.04 86.3844 28.1111 86.3844 28.1911C86.3844 28.2711 86.3844 28.3355 86.3844 28.4133H86.3955C86.4278 28.3449 86.4705 28.2819 86.5222 28.2266C86.5803 28.1646 86.646 28.1101 86.7177 28.0644C86.7978 28.016 86.8836 27.978 86.9733 27.9511C87.0729 27.922 87.1762 27.9078 87.2799 27.9089C87.4319 27.9063 87.5829 27.9334 87.7244 27.9889C87.8444 28.038 87.9516 28.114 88.0377 28.2111C88.1243 28.3109 88.188 28.4285 88.2244 28.5555C88.264 28.7003 88.2834 28.8499 88.2821 29V30.6422H87.8377V29.0311C87.8482 28.8435 87.7967 28.6576 87.691 28.5022C87.6352 28.4358 87.5644 28.3836 87.4844 28.35C87.4044 28.3164 87.3176 28.3023 87.231 28.3089C87.1027 28.3056 86.9753 28.3306 86.8577 28.3822C86.7548 28.433 86.6668 28.5096 86.6022 28.6044C86.5323 28.7018 86.4825 28.8121 86.4555 28.9289C86.4212 29.0639 86.4048 29.2029 86.4066 29.3422V30.6377H85.9622L85.9888 28.5977Z" fill="white"/>
<path d="M91.4711 29.9866C91.4711 30.1088 91.4711 30.2222 91.4822 30.3288C91.4933 30.4355 91.4822 30.5311 91.4822 30.6177H91.0622C91.0622 30.5466 91.0622 30.4733 91.0622 30.3955C91.0622 30.3177 91.0622 30.2489 91.0622 30.1733H91.0511C91.0193 30.242 90.9765 30.3051 90.9244 30.36C90.8675 30.4233 90.8016 30.4779 90.7288 30.5222C90.6497 30.5723 90.5636 30.6105 90.4733 30.6355C90.3738 30.6653 90.2705 30.6803 90.1666 30.68C90.0147 30.6825 89.8637 30.6554 89.7222 30.6C89.6014 30.5509 89.4935 30.4749 89.4066 30.3777C89.3207 30.2778 89.2577 30.1602 89.2222 30.0333C89.1823 29.8886 89.1628 29.739 89.1644 29.5889V27.9489H89.6088V29.5444C89.5987 29.732 89.6502 29.9177 89.7555 30.0733C89.8113 30.1397 89.8822 30.1919 89.9622 30.2255C90.0421 30.2591 90.129 30.2732 90.2155 30.2666C90.344 30.2692 90.4715 30.2434 90.5888 30.1911C90.6906 30.1445 90.7786 30.0726 90.8444 29.9822C90.9138 29.8846 90.9637 29.7744 90.9911 29.6577C91.0254 29.522 91.0419 29.3822 91.04 29.2422V27.9489H91.4844L91.4711 29.9866Z" fill="white"/>
<path d="M93.7668 28.3422H92.9823V29.6755C92.9823 29.7644 92.9823 29.8444 92.9823 29.9178C92.9845 29.9845 92.9996 30.0501 93.0268 30.1111C93.0532 30.1655 93.0949 30.2111 93.1468 30.2422C93.2154 30.2775 93.2919 30.2944 93.369 30.2911C93.4364 30.2904 93.5034 30.2822 93.569 30.2666C93.6356 30.2511 93.7003 30.2288 93.7623 30.2L93.7779 30.6022C93.6975 30.6368 93.6132 30.6615 93.5268 30.6755C93.4394 30.6909 93.351 30.6991 93.2623 30.7C93.1319 30.7048 93.0018 30.6829 92.8801 30.6355C92.791 30.5991 92.714 30.5383 92.6579 30.46C92.6016 30.3759 92.5651 30.2802 92.5512 30.18C92.5345 30.0562 92.5264 29.9315 92.5268 29.8066V28.3422H91.9468V27.9689H92.5268V27.2133H92.9712V27.9689H93.7668V28.3422Z" fill="white"/>
<path d="M94.3088 28.5978C94.3088 28.4778 94.3088 28.3755 94.2977 28.2578C94.2866 28.14 94.2866 28.0555 94.2866 27.9689H94.7066C94.7066 28.04 94.7066 28.1111 94.7066 28.1911C94.7066 28.2711 94.7066 28.3355 94.7066 28.4133H94.72C94.7523 28.3449 94.795 28.2819 94.8466 28.2267C94.9047 28.1646 94.9704 28.1101 95.0422 28.0644C95.1222 28.016 95.2081 27.978 95.2977 27.9511C95.3973 27.922 95.5007 27.9078 95.6044 27.9089C95.6347 27.9066 95.6652 27.9066 95.6955 27.9089C95.7268 27.912 95.7574 27.9195 95.7866 27.9311L95.7577 28.3755C95.6806 28.3524 95.6005 28.3404 95.52 28.34C95.4067 28.3298 95.2928 28.3488 95.1889 28.3951C95.0851 28.4413 94.9948 28.5134 94.9266 28.6044C94.7918 28.8211 94.7274 29.0741 94.7422 29.3289V30.6244H94.2977L94.3088 28.5978Z" fill="white"/>
<path d="M96.2467 26.9289C96.2472 26.8454 96.2808 26.7655 96.34 26.7067C96.3686 26.6763 96.4031 26.652 96.4412 26.6352C96.4794 26.6184 96.5206 26.6095 96.5623 26.6089C96.604 26.6092 96.6452 26.618 96.6835 26.6348C96.7217 26.6517 96.756 26.6761 96.7845 26.7067C96.8431 26.7689 96.8757 26.8512 96.8757 26.9367C96.8757 27.0222 96.8431 27.1044 96.7845 27.1667C96.7536 27.1966 96.717 27.22 96.677 27.2356C96.6369 27.2513 96.5941 27.2588 96.5512 27.2578C96.5081 27.2593 96.4652 27.252 96.4251 27.2364C96.3849 27.2207 96.3484 27.197 96.3178 27.1667C96.2907 27.1338 96.2705 27.0958 96.2583 27.055C96.2461 27.0141 96.2421 26.9713 96.2467 26.9289V26.9289ZM96.3489 27.9689H96.7934V30.6356H96.3489V27.9689Z" fill="white"/>
<path d="M100.047 30.1444C99.9112 30.3289 99.7316 30.4763 99.5244 30.5733C99.3128 30.6589 99.0859 30.7004 98.8577 30.6955C98.6646 30.6983 98.4731 30.6604 98.2955 30.5844C98.1362 30.5145 97.9926 30.4132 97.8733 30.2866C97.7559 30.1576 97.6652 30.0065 97.6066 29.8422C97.4749 29.4835 97.4749 29.0897 97.6066 28.7311C97.6716 28.5658 97.7682 28.4148 97.8911 28.2866C98.0151 28.1633 98.1624 28.0658 98.3244 28C98.4973 27.9302 98.6824 27.8954 98.8688 27.8978C99.0436 27.8959 99.2171 27.9276 99.38 27.9911C99.5321 28.051 99.6688 28.1444 99.78 28.2644C99.8964 28.3926 99.9843 28.5441 100.038 28.7089C100.102 28.8976 100.133 29.0962 100.129 29.2955V29.4378H97.9888C98.0048 29.6628 98.0992 29.8751 98.2555 30.0378C98.332 30.1155 98.4225 30.178 98.5222 30.2222C98.6281 30.268 98.7423 30.2915 98.8577 30.2911C99.0267 30.296 99.1944 30.2602 99.3466 30.1867C99.4864 30.114 99.6085 30.0116 99.7044 29.8866L100.047 30.1444ZM99.6666 29.0578C99.6672 28.9569 99.6479 28.8568 99.6098 28.7634C99.5717 28.67 99.5154 28.585 99.4444 28.5133C99.366 28.4427 99.2744 28.3882 99.1748 28.3531C99.0753 28.318 98.9698 28.303 98.8644 28.3089C98.6504 28.2953 98.4396 28.3661 98.2772 28.5061C98.1148 28.6461 98.0137 28.8441 97.9955 29.0578H99.6666Z" fill="white"/>
<path d="M100.831 28.5978C100.831 28.4778 100.827 28.3644 100.818 28.2578C100.818 28.1511 100.807 28.0555 100.807 27.9689H101.229C101.229 28.04 101.229 28.1111 101.229 28.1911C101.229 28.2711 101.229 28.3355 101.229 28.4133H101.24C101.272 28.3449 101.315 28.2819 101.367 28.2267C101.425 28.1646 101.49 28.1101 101.562 28.0644C101.642 28.016 101.728 27.978 101.818 27.9511C101.918 27.9219 102.022 27.9076 102.127 27.9089C102.279 27.9062 102.43 27.9333 102.571 27.9889C102.691 28.0386 102.799 28.1145 102.887 28.2111C102.972 28.3116 103.035 28.429 103.071 28.5555C103.111 28.7003 103.13 28.8499 103.129 29V30.6422H102.684V29.0311C102.695 28.8435 102.643 28.6576 102.538 28.5022C102.482 28.4358 102.411 28.3836 102.331 28.35C102.251 28.3164 102.164 28.3023 102.078 28.3089C101.949 28.3056 101.822 28.3306 101.704 28.3822C101.602 28.4331 101.514 28.5096 101.449 28.6044C101.379 28.7018 101.329 28.8121 101.302 28.9289C101.268 29.0639 101.252 29.2029 101.253 29.3422V30.6378H100.809L100.831 28.5978Z" fill="white"/>
<path d="M105.442 28.3422H104.655V29.6755C104.655 29.7644 104.655 29.8444 104.655 29.9178C104.658 29.9845 104.673 30.0501 104.7 30.1111C104.726 30.1655 104.768 30.2111 104.82 30.2422C104.888 30.2775 104.965 30.2944 105.042 30.2911C105.109 30.2904 105.177 30.2822 105.242 30.2666C105.309 30.2511 105.373 30.2288 105.435 30.2L105.451 30.6022C105.37 30.6371 105.285 30.6618 105.198 30.6755C105.111 30.691 105.023 30.6992 104.935 30.7C104.805 30.7048 104.675 30.6829 104.553 30.6355C104.464 30.5991 104.387 30.5383 104.331 30.46C104.275 30.3759 104.238 30.2802 104.224 30.18C104.208 30.0562 104.199 29.9315 104.2 29.8066V28.3422H103.62V27.9689H104.211V27.2133H104.655V27.9689H105.44L105.442 28.3422Z" fill="white"/>
<path d="M106.358 29.9866C106.448 29.9872 106.535 30.0235 106.598 30.0877C106.662 30.1518 106.698 30.2385 106.698 30.3289C106.698 30.374 106.689 30.4187 106.671 30.46C106.653 30.5014 106.627 30.5385 106.593 30.5689C106.563 30.6004 106.526 30.6254 106.485 30.6425C106.444 30.6596 106.401 30.6684 106.357 30.6684C106.313 30.6684 106.269 30.6596 106.228 30.6425C106.188 30.6254 106.151 30.6004 106.12 30.5689C106.087 30.5385 106.06 30.5014 106.042 30.46C106.024 30.4187 106.015 30.374 106.016 30.3289C106.016 30.2839 106.024 30.2394 106.042 30.1979C106.059 30.1564 106.084 30.1186 106.116 30.0869C106.148 30.0551 106.185 30.0299 106.227 30.0127C106.268 29.9955 106.313 29.9866 106.358 29.9866Z" fill="white"/>
<path d="M107.625 29.9288C107.704 30.0316 107.801 30.1196 107.911 30.1888C108.031 30.2579 108.167 30.2918 108.305 30.2866C108.375 30.286 108.445 30.2779 108.513 30.2622C108.58 30.2479 108.644 30.2231 108.702 30.1888C108.757 30.1575 108.804 30.1142 108.84 30.0622C108.874 30.0061 108.891 29.9412 108.889 29.8755C108.891 29.8136 108.875 29.7525 108.842 29.7C108.807 29.6534 108.764 29.6141 108.713 29.5844C108.657 29.5502 108.595 29.524 108.531 29.5066L108.322 29.4555C108.198 29.4288 108.078 29.4 107.965 29.3666C107.86 29.3354 107.759 29.2898 107.667 29.2311C107.581 29.1756 107.51 29.0991 107.462 29.0088C107.41 28.9055 107.383 28.7913 107.383 28.6755C107.383 28.5597 107.41 28.4456 107.462 28.3422C107.517 28.2446 107.593 28.161 107.685 28.0977C107.782 28.0317 107.889 27.9821 108.002 27.9511C108.12 27.9173 108.242 27.9001 108.365 27.9C108.546 27.8982 108.726 27.9369 108.891 28.0133C109.054 28.0918 109.187 28.2213 109.269 28.3822L108.9 28.6266C108.844 28.537 108.768 28.461 108.678 28.4044C108.576 28.3427 108.459 28.3118 108.34 28.3155C108.278 28.3152 108.216 28.3227 108.156 28.3377C108.096 28.3512 108.039 28.3745 107.987 28.4066C107.939 28.437 107.898 28.4762 107.865 28.5222C107.833 28.5705 107.817 28.6269 107.818 28.6844C107.816 28.7376 107.836 28.7894 107.871 28.8288C107.913 28.8734 107.963 28.9096 108.018 28.9355C108.09 28.9675 108.164 28.9936 108.24 29.0133C108.323 29.0372 108.408 29.0565 108.493 29.0711C108.607 29.092 108.72 29.1217 108.829 29.16C108.929 29.1927 109.023 29.2415 109.107 29.3044C109.186 29.3631 109.25 29.4391 109.296 29.5266C109.377 29.6944 109.395 29.886 109.347 30.0661C109.298 30.2462 109.186 30.4026 109.031 30.5066C108.926 30.5739 108.81 30.6228 108.689 30.6511C108.562 30.6823 108.431 30.698 108.3 30.6977C108.099 30.7026 107.9 30.6663 107.713 30.5911C107.532 30.5057 107.378 30.371 107.269 30.2022L107.625 29.9288Z" fill="white"/>
<path d="M112.304 29.9866C112.304 30.1089 112.304 30.2222 112.316 30.3288C112.327 30.4355 112.316 30.5311 112.316 30.6177H111.896C111.896 30.5466 111.896 30.4733 111.896 30.3955C111.896 30.3177 111.896 30.2489 111.896 30.1733H111.884C111.851 30.2416 111.808 30.3045 111.756 30.36C111.699 30.4233 111.633 30.4779 111.56 30.5222C111.481 30.5723 111.395 30.6105 111.304 30.6355C111.205 30.6653 111.102 30.6803 110.998 30.68C110.846 30.6828 110.695 30.6557 110.553 30.6C110.432 30.5521 110.324 30.4759 110.238 30.3777C110.151 30.2784 110.088 30.1606 110.053 30.0333C110.012 29.8889 109.991 29.7391 109.993 29.5889V27.9489H110.438V29.5444C110.427 29.7324 110.479 29.9185 110.587 30.0733C110.642 30.1401 110.713 30.1926 110.793 30.2263C110.873 30.2599 110.96 30.2738 111.047 30.2666C111.174 30.269 111.301 30.2432 111.418 30.1911C111.519 30.1445 111.607 30.0726 111.673 29.9822C111.743 29.8842 111.793 29.7742 111.822 29.6577C111.855 29.5217 111.87 29.3821 111.869 29.2422V27.9489H112.313L112.304 29.9866Z" fill="white"/>
<path d="M113.122 27.9689H113.567V28.3555C113.682 28.2147 113.827 28.1003 113.991 28.02C114.156 27.9389 114.338 27.8978 114.522 27.9C114.717 27.898 114.91 27.9334 115.091 28.0044C115.258 28.0706 115.409 28.1705 115.535 28.2978C115.658 28.4259 115.754 28.5769 115.818 28.7422C115.887 28.9198 115.922 29.1092 115.92 29.3C115.922 29.4901 115.888 29.6788 115.818 29.8555C115.754 30.0206 115.659 30.1716 115.538 30.3C115.418 30.4252 115.273 30.5243 115.113 30.5911C114.948 30.6628 114.771 30.6991 114.591 30.6978C114.372 30.7021 114.155 30.6476 113.964 30.54C113.8 30.451 113.663 30.3189 113.569 30.1578V31.9355H113.124L113.122 27.9689ZM113.567 29.3022C113.566 29.4346 113.587 29.5661 113.631 29.6911C113.673 29.8064 113.738 29.9122 113.822 30.0022C113.905 30.0964 114.006 30.1722 114.12 30.2244C114.243 30.2758 114.375 30.3022 114.509 30.3022C114.642 30.3022 114.774 30.2758 114.898 30.2244C115.012 30.1724 115.115 30.0967 115.198 30.0022C115.281 29.9126 115.346 29.8067 115.387 29.6911C115.475 29.4395 115.475 29.1649 115.387 28.9133C115.346 28.7969 115.282 28.6902 115.198 28.6C115.113 28.511 115.011 28.44 114.898 28.3911C114.774 28.3398 114.642 28.3133 114.509 28.3133C114.375 28.3133 114.243 28.3398 114.12 28.3911C114.008 28.4401 113.906 28.5111 113.822 28.6C113.738 28.6908 113.673 28.7973 113.631 28.9133C113.587 29.0367 113.564 29.1668 113.564 29.2978L113.567 29.3022Z" fill="white"/>
<path d="M116.591 27.9689H117.036V28.3556C117.151 28.2148 117.295 28.1004 117.458 28.02C117.623 27.9392 117.805 27.898 117.989 27.9C118.184 27.8978 118.378 27.9333 118.56 28.0045C118.727 28.0698 118.879 28.1698 119.004 28.2978C119.128 28.4258 119.224 28.5768 119.289 28.7422C119.359 28.9198 119.393 29.1092 119.391 29.3C119.393 29.4901 119.359 29.6788 119.289 29.8555C119.224 30.0197 119.129 30.1705 119.009 30.3C118.886 30.4262 118.738 30.5264 118.576 30.5947C118.413 30.663 118.239 30.6981 118.062 30.6978C117.843 30.7025 117.626 30.648 117.436 30.54C117.271 30.4516 117.134 30.3193 117.04 30.1578V31.9356H116.595L116.591 27.9689ZM117.036 29.3022C117.035 29.4346 117.056 29.5661 117.1 29.6911C117.141 29.8069 117.207 29.9129 117.291 30.0022C117.373 30.097 117.475 30.1728 117.589 30.2244C117.712 30.2758 117.844 30.3022 117.978 30.3022C118.111 30.3022 118.243 30.2758 118.367 30.2244C118.481 30.1728 118.582 30.097 118.664 30.0022C118.749 29.9129 118.814 29.8069 118.856 29.6911C118.941 29.439 118.941 29.1655 118.856 28.9133C118.814 28.7969 118.749 28.6902 118.664 28.6C118.581 28.5106 118.479 28.4395 118.367 28.3911C118.243 28.3398 118.111 28.3133 117.978 28.3133C117.844 28.3133 117.712 28.3398 117.589 28.3911C117.476 28.4395 117.375 28.5106 117.291 28.6C117.207 28.6902 117.141 28.7969 117.1 28.9133C117.057 29.0369 117.035 29.1669 117.036 29.2978V29.3022Z" fill="white"/>
<path d="M119.931 29.2978C119.929 29.1028 119.966 28.9094 120.04 28.7289C120.109 28.5628 120.209 28.4118 120.336 28.2845C120.463 28.1599 120.614 28.0623 120.78 27.9978C121.146 27.8616 121.549 27.8616 121.916 27.9978C122.081 28.0627 122.233 28.1602 122.36 28.2845C122.486 28.4124 122.586 28.5633 122.656 28.7289C122.799 29.0939 122.799 29.4995 122.656 29.8645C122.588 30.0307 122.487 30.1818 122.36 30.3089C122.233 30.4345 122.082 30.5328 121.916 30.5978C121.549 30.734 121.146 30.734 120.78 30.5978C120.614 30.5333 120.462 30.4349 120.336 30.3089C120.208 30.1822 120.108 30.031 120.04 29.8645C119.966 29.6847 119.929 29.4921 119.931 29.2978V29.2978ZM120.409 29.2978C120.408 29.4302 120.43 29.5617 120.473 29.6867C120.516 29.802 120.581 29.9078 120.665 29.9978C120.747 30.092 120.849 30.1677 120.962 30.22C121.086 30.2714 121.218 30.2978 121.351 30.2978C121.485 30.2978 121.617 30.2714 121.74 30.22C121.855 30.168 121.957 30.0923 122.04 29.9978C122.124 29.9082 122.188 29.8023 122.229 29.6867C122.318 29.4351 122.318 29.1605 122.229 28.9089C122.188 28.7925 122.124 28.6858 122.04 28.5956C121.955 28.5066 121.853 28.4356 121.74 28.3867C121.617 28.3353 121.485 28.3089 121.351 28.3089C121.218 28.3089 121.086 28.3353 120.962 28.3867C120.85 28.4356 120.749 28.5067 120.665 28.5956C120.581 28.6864 120.516 28.7929 120.473 28.9089C120.43 29.0339 120.408 29.1654 120.409 29.2978V29.2978Z" fill="white"/>
<path d="M123.46 28.5978C123.46 28.4778 123.456 28.3644 123.447 28.2578C123.447 28.1511 123.447 28.0555 123.447 27.9689H123.869C123.869 28.04 123.869 28.1111 123.869 28.1911C123.869 28.2711 123.869 28.3355 123.869 28.4133C123.901 28.3449 123.944 28.282 123.996 28.2267C124.054 28.1646 124.119 28.1101 124.191 28.0644C124.271 28.016 124.357 27.978 124.447 27.9511C124.547 27.9219 124.651 27.9077 124.756 27.9089C124.785 27.9067 124.815 27.9067 124.845 27.9089C124.876 27.9118 124.907 27.9193 124.936 27.9311L124.907 28.3755C124.83 28.3522 124.75 28.3403 124.669 28.34C124.556 28.3298 124.442 28.3488 124.338 28.3951C124.234 28.4413 124.144 28.5134 124.076 28.6044C123.942 28.8215 123.878 29.0742 123.891 29.3289V30.6244H123.447L123.46 28.5978Z" fill="white"/>
<path d="M126.913 28.3422H126.129V29.6755C126.129 29.7644 126.129 29.8444 126.129 29.9178C126.132 29.9846 126.148 30.0503 126.176 30.1111C126.202 30.1655 126.244 30.2111 126.296 30.2422C126.364 30.2775 126.441 30.2944 126.518 30.2911C126.585 30.2905 126.651 30.2823 126.716 30.2666C126.782 30.2518 126.847 30.2295 126.909 30.2L126.927 30.6022C126.846 30.6371 126.761 30.6618 126.673 30.6755C126.586 30.691 126.498 30.6992 126.409 30.7C126.279 30.7047 126.15 30.6827 126.029 30.6355C125.94 30.5994 125.863 30.5385 125.807 30.46C125.751 30.3758 125.716 30.28 125.702 30.18C125.685 30.0564 125.676 29.9315 125.678 29.8066V28.3422H125.1V27.9689H125.68V27.2133H126.125V27.9689H126.909L126.913 28.3422Z" fill="white"/>
<path d="M18.0066 13.3378C18.203 13.2972 18.3967 13.2445 18.5866 13.18C19.0901 13.0239 19.5598 12.7744 19.971 12.4445C20.5704 11.9264 20.9918 11.2329 21.1755 10.4622C21.2784 10.0612 21.3174 9.64649 21.291 9.23334C20.9282 9.32929 20.5799 9.47355 20.2555 9.66223C19.8005 9.9318 19.399 10.2828 19.071 10.6978C18.7866 11.0585 18.5581 11.4601 18.3933 11.8889C18.2311 12.2805 18.1162 12.6901 18.051 13.1089L18.0066 13.3378Z" fill="#B4C3B5" stroke="white" stroke-width="0.05" stroke-miterlimit="10"/>
<path d="M17.6844 13.32C16.9 12.9978 16.253 12.4113 15.8556 11.6622C15.6526 11.2684 15.5174 10.8432 15.4556 10.4044C15.4133 10.1526 15.3917 9.89762 15.3911 9.64221C15.6462 9.74224 15.8905 9.86808 16.12 10.0178C16.4488 10.2198 16.7411 10.476 16.9844 10.7755C17.2782 11.1426 17.4897 11.5685 17.6044 12.0244C17.6866 12.3563 17.7181 12.6987 17.6978 13.04L17.6844 13.32Z" fill="#B4C3B5" stroke="white" stroke-width="0.05" stroke-miterlimit="10"/>
<path d="M17.7132 13.4156C17.7271 13.3989 17.7436 13.3846 17.7621 13.3734C17.7751 13.3684 17.7885 13.3647 17.8021 13.3623C17.8248 13.3568 17.8484 13.3568 17.871 13.3623C17.897 13.3699 17.9201 13.3852 17.9372 13.4062C17.9542 13.4273 17.9645 13.453 17.9666 13.48C17.973 13.5048 17.973 13.5308 17.9666 13.5556C17.959 13.5857 17.9478 13.6148 17.9332 13.6423L17.8955 13.7423C17.8681 13.8239 17.8488 13.908 17.8377 13.9934C17.8249 14.0795 17.8168 14.1663 17.8132 14.2534C17.7988 14.471 17.81 14.6895 17.8466 14.9045C17.8962 15.1518 17.976 15.3922 18.0843 15.62C18.1199 15.7 18.151 15.7667 18.1732 15.8134C18.1814 15.8243 18.1861 15.8375 18.1866 15.8511C18.1879 15.8709 18.1824 15.8905 18.171 15.9067C18.1583 15.9239 18.1415 15.9376 18.1221 15.9467C18.1004 15.9571 18.0771 15.9638 18.0532 15.9667C18.0357 15.971 18.0174 15.971 17.9999 15.9667C17.9846 15.9613 17.9714 15.9511 17.9621 15.9378C17.9125 15.8805 17.8692 15.8179 17.8332 15.7511C17.771 15.6134 17.7443 15.5289 17.7443 15.5289C17.6621 15.2823 17.6199 15.1578 17.6088 15.1134C17.5694 14.9522 17.5442 14.7878 17.5332 14.6223C17.5182 14.4544 17.5182 14.2856 17.5332 14.1178C17.552 13.9486 17.5855 13.7813 17.6332 13.6178L17.6688 13.5111C17.6774 13.4768 17.6925 13.4443 17.7132 13.4156Z" fill="white" stroke="white" stroke-width="0.05" stroke-miterlimit="10"/>
<path d="M17.6645 13.2845C17.4434 12.2056 16.8724 11.23 16.04 10.5089" stroke="white" stroke-width="0.05" stroke-miterlimit="10"/>
<path d="M18.0334 13.32C18.1557 13.0711 18.2934 12.8156 18.4534 12.5533C18.9366 11.7595 19.5282 11.0369 20.2112 10.4067" stroke="white" stroke-width="0.05" stroke-miterlimit="10"/>
<path d="M54.9778 28.7533C54.6222 28.1133 54.2178 27.2844 53.7089 26.1666L45.4311 9.6644L45.2622 9.40218C45.2266 9.37329 45.1889 9.3444 45.1489 9.31774C44.9068 9.15995 44.6245 9.0751 44.3355 9.0733L41.2978 9.01996C41.2557 9.04279 41.2119 9.06212 41.1667 9.07774L41.1422 9.09996C41.1247 9.14364 41.1178 9.19088 41.1222 9.23774V10.5977V10.64C41.1205 10.654 41.1205 10.6682 41.1222 10.6822C41.1321 10.7117 41.1481 10.7389 41.1691 10.7618C41.1902 10.7848 41.2158 10.8031 41.2444 10.8155C41.2857 10.8361 41.3317 10.8453 41.3778 10.8422H44.0444L52.9333 28.6622H2.59554L11.5089 10.8755L12.3422 10.8622C12.3933 10.8622 13.7955 10.8622 13.8978 10.8622C14.28 10.8622 14.3 10.8777 14.3089 10.7933C14.3266 10.6311 14.3755 10.4133 14.4022 9.98663C14.4289 9.55996 14.4222 9.6044 14.4289 9.38885C14.4289 9.25551 14.5333 9.09774 13.9422 9.08663C13.9422 9.08663 13.6755 9.06662 12.4378 9.04662L11.1555 9.02441C11.0816 9.01887 11.0073 9.01887 10.9333 9.02441C10.8151 9.02899 10.6982 9.05146 10.5866 9.09107C10.419 9.16906 10.2849 9.30471 10.2089 9.47329L0.466648 28.8955L0.377759 29.1355C0.356778 29.192 0.343329 29.2511 0.337759 29.3111C0.323669 29.4458 0.34102 29.5819 0.388448 29.7088C0.435877 29.8356 0.512089 29.9498 0.611093 30.0422C0.737052 30.1467 0.892335 30.2096 1.05554 30.2222H54.7267C54.7828 30.2226 54.8385 30.2128 54.8911 30.1933C54.9619 30.1616 55.0255 30.116 55.0782 30.0591C55.1309 30.0022 55.1716 29.9352 55.1978 29.8622C55.3755 29.4711 55.0089 28.8089 54.9778 28.7533Z" fill="white" stroke="white" stroke-width="0.1" stroke-miterlimit="10"/>
<path opacity="0.75" d="M10.3467 27.9733L15.8289 12.3289" stroke="white" stroke-width="0.075" stroke-miterlimit="10"/>
<path opacity="0.75" d="M17.3689 27.9733L20.7867 12.3289" stroke="white" stroke-width="0.075" stroke-miterlimit="10"/>
<path opacity="0.75" d="M24.0957 28.0577L25.6601 12.3289" stroke="white" stroke-width="0.075" stroke-miterlimit="10"/>
<path opacity="0.75" d="M45.7112 27.9733L40.229 12.3289" stroke="white" stroke-width="0.075" stroke-miterlimit="10"/>
<path opacity="0.75" d="M38.2245 27.9733L34.9756 12.3289" stroke="white" stroke-width="0.075" stroke-miterlimit="10"/>
<path opacity="0.75" d="M31.2735 28.0577L29.7068 12.3289" stroke="white" stroke-width="0.075" stroke-miterlimit="10"/>
<path d="M6.85547 23.6066L49.0866 24.0333" stroke="white" stroke-width="0.075" stroke-miterlimit="10"/>
<path d="M8.33105 20.2111L47.1711 20.6022" stroke="white" stroke-width="0.075" stroke-miterlimit="10"/>
<path d="M9.85547 16.9844L45.9688 17.3467" stroke="white" stroke-width="0.075" stroke-miterlimit="10"/>
<path d="M11.24 14.2444L44.5978 14.5799" stroke="white" stroke-width="0.075" stroke-miterlimit="10"/>
<path d="M27.5445 2.41552C27.443 2.53416 27.3487 2.65883 27.2623 2.78885C27.0618 3.08937 26.8956 3.41138 26.7667 3.74885C26.6722 3.96757 26.5979 4.19444 26.5445 4.42664C26.4612 4.79087 26.4409 5.16667 26.4845 5.53775C26.5441 5.92563 26.6672 6.30103 26.8489 6.64886C27.072 7.07973 27.3434 7.48381 27.6578 7.8533C27.6888 7.89304 27.7273 7.92627 27.7711 7.95108C27.825 7.98288 27.8853 8.00218 27.9476 8.00757C28.0099 8.01295 28.0726 8.00428 28.1311 7.98219C28.2068 7.94458 28.2678 7.8828 28.3045 7.80663C28.5512 7.36219 28.7134 7.3733 29.0223 6.73108C29.2497 6.31299 29.3946 5.85503 29.4489 5.38219C29.4827 4.9827 29.4466 4.58039 29.3423 4.1933C29.2785 3.95925 29.1914 3.73218 29.0823 3.51552C28.95 3.23318 28.7891 2.96511 28.6023 2.71552C28.5227 2.61744 28.461 2.50611 28.42 2.38663C28.4009 2.32688 28.3853 2.26603 28.3734 2.20441C28.3523 2.09572 28.3375 1.98591 28.3289 1.87552C28.3111 1.66886 28.2889 1.4933 28.2667 1.33552C28.2186 1.10652 28.183 0.875068 28.16 0.642192C28.1601 0.552517 28.1504 0.463097 28.1311 0.375522C28.1291 0.335465 28.1125 0.297528 28.0845 0.268853C28.0607 0.249356 28.0308 0.238708 28 0.238708C27.9693 0.238708 27.9394 0.249356 27.9156 0.268853C27.9055 0.28284 27.8984 0.298704 27.8946 0.315498C27.8908 0.332291 27.8904 0.349675 27.8934 0.366631C27.8842 0.454163 27.8693 0.541012 27.8489 0.626634C27.8489 0.626634 27.8089 0.848853 27.7334 1.28219C27.68 1.59552 27.6534 1.74663 27.6267 1.89108C27.6 2.03552 27.5845 2.13774 27.5667 2.24219L27.5445 2.41552Z" fill="#006838" stroke="white" stroke-width="0.2" stroke-miterlimit="10"/>
<path d="M23.9422 7.02889C23.9233 7.18376 23.9129 7.33955 23.9111 7.49555C23.9096 7.85651 23.9483 8.21651 24.0266 8.56888C24.0654 8.80521 24.1265 9.03734 24.2088 9.26222C24.3397 9.61232 24.5291 9.93768 24.7688 10.2244C25.0315 10.5137 25.3401 10.7577 25.6822 10.9467C26.1039 11.184 26.5512 11.3726 27.0155 11.5089C27.0643 11.5242 27.1155 11.531 27.1666 11.5289C27.2288 11.5252 27.2893 11.5077 27.3439 11.4777C27.3985 11.4478 27.4457 11.406 27.4822 11.3556C27.5257 11.2828 27.5429 11.1973 27.5311 11.1133C27.4933 10.6089 27.6333 10.5267 27.5311 9.82222C27.4929 9.34743 27.3623 8.88467 27.1466 8.46C26.9549 8.10775 26.703 7.79185 26.4022 7.52666C26.2205 7.3659 26.0232 7.22371 25.8133 7.10222C25.547 6.93917 25.2648 6.80366 24.9711 6.69778C24.8513 6.65994 24.7393 6.60126 24.6399 6.52444C24.5866 6.48222 24.5444 6.44 24.4999 6.39778C24.4209 6.31937 24.3467 6.23626 24.2777 6.14889C24.1488 5.98444 24.0333 5.85111 23.9288 5.72888C23.7615 5.56515 23.6042 5.39151 23.4577 5.20888C23.4076 5.13456 23.3503 5.06534 23.2866 5.00222C23.2624 4.97059 23.2277 4.94856 23.1888 4.94C23.1586 4.93697 23.1283 4.94434 23.1028 4.96091C23.0773 4.97748 23.0583 5.00225 23.0488 5.03111C23.0488 5.06666 23.0644 5.09333 23.0844 5.12666C23.1241 5.20519 23.159 5.28608 23.1888 5.36888L23.4533 5.97777C23.5799 6.27111 23.6422 6.42222 23.6999 6.54666L23.8422 6.87333L23.9422 7.02889Z" fill="#006838" stroke="white" stroke-width="0.2" stroke-miterlimit="10"/>
<path d="M23.9422 11.5844C23.9234 11.7393 23.913 11.8951 23.9111 12.0511C23.9096 12.4121 23.9484 12.7721 24.0267 13.1244C24.0655 13.3607 24.1265 13.5929 24.2089 13.8178C24.3398 14.1679 24.5291 14.4932 24.7689 14.78C25.0316 15.0693 25.3402 15.3133 25.6822 15.5022C26.1039 15.7395 26.5512 15.9281 27.0155 16.0644C27.0644 16.0797 27.1155 16.0865 27.1667 16.0844C27.2288 16.0807 27.2894 16.0633 27.344 16.0333C27.3985 16.0033 27.4458 15.9616 27.4822 15.9111C27.5259 15.8384 27.5431 15.7528 27.5311 15.6689C27.4933 15.1667 27.6333 15.0822 27.5311 14.3778C27.493 13.903 27.3624 13.4402 27.1467 13.0155C26.9544 12.6637 26.7025 12.3479 26.4022 12.0822C26.2206 11.9214 26.0233 11.7793 25.8133 11.6578C25.547 11.4947 25.2648 11.3592 24.9711 11.2533C24.851 11.2165 24.7387 11.1577 24.64 11.08C24.5867 11.0378 24.5444 10.9955 24.5 10.9533C24.4204 10.8755 24.3462 10.7923 24.2778 10.7044C24.1489 10.54 24.0333 10.4067 23.9289 10.2867C23.7619 10.1219 23.6046 9.94749 23.4578 9.76443C23.408 9.6905 23.3507 9.62197 23.2867 9.55998C23.2632 9.52707 23.2284 9.5041 23.1889 9.49554C23.1587 9.49251 23.1283 9.49989 23.1029 9.51645C23.0774 9.53302 23.0584 9.55779 23.0489 9.58665C23.0479 9.62192 23.0606 9.65619 23.0844 9.68221C23.1238 9.76092 23.1587 9.84179 23.1889 9.92443L23.4533 10.5355L23.7 11.1022L23.8422 11.4289L23.9422 11.5844Z" fill="#006838" stroke="white" stroke-width="0.2" stroke-miterlimit="10"/>
<path d="M23.9422 16.2222C23.9233 16.3771 23.9129 16.5329 23.9111 16.6889C23.9096 17.0499 23.9483 17.4099 24.0266 17.7622C24.0654 17.9986 24.1265 18.2307 24.2088 18.4556C24.3397 18.8057 24.5291 19.131 24.7688 19.4178C25.0315 19.7071 25.3401 19.9511 25.6822 20.14C26.1039 20.3773 26.5512 20.5659 27.0155 20.7022C27.0643 20.7176 27.1155 20.7243 27.1666 20.7222C27.2288 20.7186 27.2893 20.7011 27.3439 20.6711C27.3985 20.6411 27.4457 20.5994 27.4822 20.5489C27.5257 20.4761 27.5429 20.3906 27.5311 20.3067C27.4933 19.8022 27.6333 19.72 27.5311 19.0156C27.4929 18.5408 27.3623 18.078 27.1466 17.6534C26.9549 17.3011 26.703 16.9852 26.4022 16.72C26.2205 16.5593 26.0232 16.4171 25.8133 16.2956C25.547 16.1325 25.2648 15.997 24.9711 15.8911C24.8513 15.8533 24.7393 15.7946 24.6399 15.7178C24.5866 15.6756 24.5444 15.6334 24.4999 15.5911C24.4209 15.5127 24.3467 15.4296 24.2777 15.3422C24.1488 15.1778 24.0333 15.0445 23.9288 14.9222C23.7615 14.7585 23.6042 14.5849 23.4577 14.4022C23.4076 14.3279 23.3503 14.2587 23.2866 14.1956C23.2624 14.164 23.2277 14.1419 23.1888 14.1334C23.1586 14.1303 23.1283 14.1377 23.1028 14.1543C23.0773 14.1708 23.0583 14.1956 23.0488 14.2245C23.0488 14.26 23.0644 14.2867 23.0844 14.32C23.1241 14.3985 23.159 14.4794 23.1888 14.5622C23.1888 14.5622 23.2777 14.7667 23.4533 15.1711C23.5799 15.4645 23.6422 15.6045 23.6999 15.74L23.8422 16.0667L23.9422 16.2222Z" fill="#006838" stroke="white" stroke-width="0.2" stroke-miterlimit="10"/>
<path d="M31.1933 6.54441C31.0422 6.59013 30.8938 6.64429 30.7488 6.70663C30.4167 6.84949 30.1021 7.02992 29.8111 7.24441C29.6118 7.37599 29.4244 7.5247 29.2511 7.68885C28.9836 7.95084 28.7621 8.25581 28.5955 8.59107C28.4372 8.94821 28.3381 9.32875 28.3022 9.71774C28.2564 10.2009 28.2653 10.6877 28.3288 11.1689C28.333 11.2194 28.3474 11.2685 28.3711 11.3133C28.3986 11.3694 28.4385 11.4186 28.4877 11.4571C28.537 11.4956 28.5944 11.5224 28.6555 11.5355C28.7396 11.5448 28.8245 11.5269 28.8977 11.4844C29.3422 11.2444 29.4755 11.3422 30.0822 10.9689C30.5006 10.7422 30.8712 10.4366 31.1733 10.0689C31.4183 9.75104 31.6062 9.39314 31.7288 9.01107C31.8022 8.77951 31.8528 8.54135 31.88 8.29996C31.921 7.99138 31.9314 7.67949 31.9111 7.36885C31.8962 7.24323 31.9044 7.11593 31.9355 6.9933C31.9515 6.93275 31.9715 6.87336 31.9955 6.81552C32.0344 6.71209 32.0812 6.61179 32.1355 6.51552C32.2333 6.33108 32.3088 6.17107 32.3777 6.02663C32.4598 5.80752 32.5556 5.59376 32.6644 5.38663C32.7122 5.31079 32.7524 5.2304 32.7844 5.14663C32.8051 5.11189 32.8115 5.07044 32.8022 5.03108C32.7924 5.00244 32.7732 4.97791 32.7479 4.96139C32.7225 4.94488 32.6923 4.93734 32.6622 4.93996C32.6266 4.93996 32.6111 4.97996 32.5888 5.01107C32.5331 5.07865 32.4737 5.1432 32.4111 5.20441L31.9666 5.69329L31.5466 6.13774L31.3044 6.39996L31.1933 6.54441Z" fill="#006838" stroke="white" stroke-width="0.2" stroke-miterlimit="10"/>
<path d="M31.2267 11.0978C31.0758 11.1432 30.9275 11.1966 30.7823 11.2578C30.451 11.4024 30.1366 11.5827 29.8445 11.7956C29.6458 11.9279 29.4585 12.0765 29.2845 12.24C29.0166 12.5015 28.7949 12.8066 28.6289 13.1422C28.4706 13.4994 28.3716 13.8799 28.3356 14.2689C28.2898 14.7513 28.2988 15.2374 28.3623 15.7178C28.3664 15.769 28.3807 15.8189 28.4045 15.8645C28.4318 15.9203 28.4713 15.9693 28.5202 16.0078C28.5691 16.0463 28.626 16.0733 28.6867 16.0867C28.7719 16.097 28.858 16.0782 28.9312 16.0333C29.3756 15.7956 29.5089 15.8911 30.1156 15.52C30.5346 15.2932 30.9052 14.9867 31.2067 14.6178C31.4513 14.3005 31.6393 13.9434 31.7623 13.5622C31.8333 13.33 31.8838 13.0921 31.9134 12.8511C31.9534 12.5417 31.9638 12.2292 31.9445 11.9178C31.9285 11.793 31.9361 11.6664 31.9667 11.5445C31.9841 11.4841 32.0048 11.4247 32.0289 11.3667C32.0679 11.2632 32.1147 11.1629 32.1689 11.0667C32.2667 10.8822 32.3423 10.7222 32.4112 10.5778C32.4927 10.3585 32.5885 10.1447 32.6978 9.93778C32.7451 9.86199 32.7846 9.78158 32.8156 9.69778C32.8369 9.66327 32.844 9.62188 32.8356 9.58222C32.8258 9.55359 32.8067 9.52905 32.7813 9.51254C32.7559 9.49603 32.7258 9.48849 32.6956 9.49111C32.66 9.49111 32.6445 9.53111 32.6223 9.56222C32.5664 9.63037 32.5063 9.69494 32.4423 9.75556C32.4423 9.75556 32.2912 9.92 31.9978 10.2444L31.5778 10.6889L31.3356 10.9511L31.2267 11.0978Z" fill="#006838" stroke="white" stroke-width="0.2" stroke-miterlimit="10"/>
<path d="M31.2267 15.7355C31.0758 15.781 30.9275 15.8344 30.7823 15.8955C30.451 16.0401 30.1366 16.2205 29.8445 16.4333C29.6448 16.5642 29.4573 16.713 29.2845 16.8778C29.0161 17.1389 28.7943 17.444 28.6289 17.78C28.4706 18.1371 28.3716 18.5177 28.3356 18.9066C28.2898 19.3891 28.2988 19.8751 28.3623 20.3555C28.3664 20.4067 28.3807 20.4566 28.4045 20.5022C28.4318 20.5581 28.4713 20.6071 28.5202 20.6456C28.5691 20.684 28.626 20.711 28.6867 20.7244C28.7718 20.7336 28.8576 20.7148 28.9312 20.6711C29.3756 20.4333 29.5089 20.5289 30.1156 20.1578C30.5346 19.9309 30.9052 19.6245 31.2067 19.2555C31.452 18.9413 31.6414 18.5873 31.7667 18.2089C31.8377 17.9767 31.8882 17.7387 31.9178 17.4977C31.9578 17.1883 31.9682 16.8758 31.9489 16.5644C31.9329 16.4397 31.9405 16.3131 31.9711 16.1911C31.9885 16.13 32.0093 16.0699 32.0334 16.0111C32.0732 15.9081 32.12 15.8078 32.1734 15.7111C32.2711 15.5289 32.3467 15.3689 32.4156 15.2244C32.4967 15.0049 32.5924 14.7911 32.7023 14.5844C32.7499 14.508 32.7894 14.4268 32.82 14.3422C32.8414 14.3085 32.8486 14.2678 32.84 14.2289C32.8306 14.2 32.8115 14.1752 32.7861 14.1587C32.7606 14.1421 32.7303 14.1347 32.7 14.1378C32.6645 14.1378 32.6489 14.1755 32.6267 14.2089C32.5708 14.277 32.5107 14.3416 32.4467 14.4022L31.9889 14.8755L31.5689 15.3311L31.3267 15.5933L31.2267 15.7355Z" fill="#006838" stroke="white" stroke-width="0.2" stroke-miterlimit="10"/>
<path d="M27.0022 25.0977C27.005 25.1471 27.0117 25.1961 27.0222 25.2444C27.0646 25.4074 27.1552 25.5538 27.2822 25.6644C27.3495 25.7211 27.4242 25.7682 27.5044 25.8044C27.7596 25.9248 28.052 25.9392 28.3178 25.8444C28.4065 25.8103 28.4896 25.7631 28.5644 25.7044C28.7472 25.565 28.8671 25.3588 28.8978 25.1311C28.9011 25.0934 28.9011 25.0554 28.8978 25.0177V21.7889C28.9005 21.7556 28.9005 21.7221 28.8978 21.6888C28.8437 21.4787 28.7129 21.2963 28.5311 21.1777C28.4624 21.114 28.3835 21.0621 28.2978 21.0244C28.0837 20.9393 27.8452 20.9393 27.6311 21.0244C27.5245 21.0627 27.4252 21.1191 27.3378 21.1911C27.1803 21.325 27.0665 21.503 27.0111 21.7022V25.0977H27.0022Z" fill="#006838" stroke="white" stroke-width="0.2" stroke-miterlimit="10"/>
<path d="M37.2645 9.73111C37.1756 9.77334 37.3445 10.1756 37.4867 10.9778C37.5316 11.352 37.5999 11.7231 37.6911 12.0889C37.86 12.6711 38.0156 12.8333 38.16 12.9244C38.3209 13.0171 38.5059 13.0597 38.6911 13.0467C38.9322 13.0507 39.1674 12.9723 39.3578 12.8244C39.4911 12.7111 39.58 12.56 39.7089 12.04C39.8378 11.52 39.8445 11.2956 39.9156 10.8711C40.0533 10.04 40.1978 9.74667 40.1378 9.71333C40.0778 9.68 39.7578 9.99778 38.7245 11.6956L38.3689 11.1444C38.1608 10.7971 37.9322 10.4625 37.6845 10.1422C37.4622 9.87112 37.3222 9.70223 37.2645 9.73111Z" fill="#B4C3B5" stroke="white" stroke-width="0.05" stroke-miterlimit="10"/>
<path d="M37.8134 10.3133L38.7023 11.6845L39.5756 10.3133C39.5845 10.1779 39.5845 10.0421 39.5756 9.90668C39.5718 9.40758 39.4091 8.92265 39.1112 8.52224C38.9978 8.38668 38.8689 8.23779 38.6889 8.23779C38.6445 8.23779 38.4667 8.23779 38.2445 8.54001C37.9697 8.93172 37.8153 9.39511 37.8 9.87335L37.8134 10.3133Z" fill="#B4C3B5" stroke="white" stroke-width="0.05" stroke-miterlimit="10"/>
<path d="M38.5312 13.04H38.8779V14.5756C38.9082 14.428 38.9583 14.2853 39.0267 14.1511C39.3055 13.8129 39.6712 13.5571 40.0845 13.4111C40.4445 13.2511 40.9001 13.0422 41.5334 12.7445C41.5648 12.7366 41.5976 12.7366 41.629 12.7445C41.6627 12.7596 41.6917 12.7834 41.7132 12.8135C41.7347 12.8436 41.7478 12.8788 41.7512 12.9156C41.755 12.9531 41.7505 12.9911 41.7379 13.0267C41.6999 13.1354 41.6402 13.2352 41.5623 13.32C41.2223 13.8578 40.9779 14.2533 40.8423 14.4822C40.7755 14.5952 40.7013 14.7036 40.6201 14.8067C40.5434 14.9034 40.4603 14.9947 40.3712 15.08C40.1997 15.2318 40.0074 15.3583 39.8001 15.4556C39.4951 15.5934 39.1657 15.669 38.8312 15.6778C38.5039 15.7044 38.1746 15.6659 37.8623 15.5645C37.5357 15.452 37.2381 15.2683 36.9912 15.0267C36.8863 14.9125 36.789 14.7915 36.7001 14.6645C36.5978 14.52 36.5845 14.4778 36.4178 14.2089C36.1956 13.8511 36.1956 13.88 36.0512 13.6311C35.9801 13.5067 35.9267 13.4089 35.8067 13.2067L35.6801 13C35.6692 12.9747 35.6636 12.9475 35.6636 12.92C35.6636 12.8925 35.6692 12.8653 35.6801 12.84C35.6963 12.8115 35.7187 12.7869 35.7456 12.7681C35.7725 12.7493 35.8033 12.7367 35.8356 12.7311C35.8903 12.7252 35.9453 12.7385 35.9912 12.7689L36.6578 13.0889C37.1445 13.3222 37.389 13.44 37.4534 13.4645C37.4823 13.4778 37.569 13.5111 37.6756 13.5689C37.7823 13.6267 37.849 13.6711 37.8979 13.6956C37.9467 13.72 37.9845 13.76 38.0423 13.8045C38.1101 13.8536 38.1747 13.907 38.2356 13.9645C38.3028 14.0396 38.363 14.1207 38.4156 14.2067C38.4534 14.2733 38.5179 14.5222 38.5556 14.6111L38.5312 13.04Z" fill="#B4C3B5" stroke="white" stroke-width="0.05" stroke-miterlimit="10"/>
</svg>
