<svg width="500" height="500" viewBox="0 0 500 500" fill="none" xmlns="http://www.w3.org/2000/svg">
<path d="M482.711 263.596C438.852 173.908 313.349 42.5439 150.303 42.201C-19.8484 41.8501 -36.2997 210.598 55.4068 257.512C147.113 304.426 13.0224 362.879 108.876 421.627C205.901 481.085 413.238 475.502 464.274 429.25C515.311 382.998 501.659 302.345 482.711 263.596Z" fill="url(#paint0_linear_3_59)"/>
<path opacity="0.5" d="M385.893 149.936C385.893 149.936 368.23 123.987 336.3 120.909C336.3 99.2584 337.273 38.7241 337.273 38.7241C337.273 38.7241 387.089 42.6316 386.818 57.2488C386.547 71.866 385.893 149.936 385.893 149.936Z" fill="url(#paint1_linear_3_59)"/>
<path d="M183.126 425.024V437.185L162.193 439.378L161.738 434.027L164.186 426.475L183.126 425.024Z" fill="url(#paint2_linear_3_59)"/>
<path d="M210.526 454.729V457.616C210.52 460.452 208.317 462.798 205.486 462.982C200.956 463.261 196.409 463.034 191.93 462.305C183.452 460.914 175.113 458.779 167.009 455.925C162.823 454.529 160.829 454.529 160.231 452.137C159.633 449.745 160.375 444.099 160.375 444.099L185.263 449.777L210.526 454.729Z" fill="#1F1844"/>
<path d="M224.809 409.506L228.892 420.526L227.329 431.906L224.275 434.617L211.452 430.766L208.302 425.901L211.579 408.644L224.809 409.506Z" fill="url(#paint3_linear_3_59)"/>
<path d="M206.539 434.027V438.939C206.539 440.684 207.825 442.161 209.553 442.4C212.99 442.879 218.541 443.684 221.515 444.274C226.092 445.167 237.033 449.147 243.198 449.545C249.362 449.944 256.324 450.048 259.41 448.054C262.496 446.061 261.802 441.388 261.802 441.388L206.539 434.027Z" fill="#1F1844"/>
<path d="M208.342 420.901C208.342 420.901 205.152 433.038 206.954 434.825C208.756 436.611 222.169 437.512 225.75 439.801C229.33 442.089 243.948 445.67 251.707 445.072C259.466 444.474 261.651 443.477 261.85 441.388C262.05 439.298 246.436 436.419 243.653 434.33C240.87 432.241 239.179 424.88 235.295 422.368C231.412 419.856 234.402 415.407 230.327 415.191C226.252 414.976 227.337 421.571 221.276 421.954C216.938 422.118 212.596 421.765 208.342 420.901Z" fill="url(#paint4_linear_3_59)"/>
<path d="M183.326 219.083C183.326 219.083 175.351 227.057 175.75 245.399C176.149 263.74 180.933 309.593 177.744 323.549C174.554 337.504 166.978 358.238 165.383 381.762C163.788 405.287 162.193 429.211 162.193 429.211H185.319C185.319 429.211 180.933 404.888 187.712 388.142C194.49 371.396 202.464 344.282 205.654 335.909C207.337 331.635 208.801 327.278 210.04 322.855C210.04 322.855 204.059 383.357 204.059 397.313C204.059 411.268 204.857 423.628 208.461 423.23C212.066 422.831 223.996 417.648 225.59 416.451C227.185 415.255 229.179 395.319 228.78 388.142C228.382 380.965 231.97 341.491 231.97 341.491C231.97 341.491 241.938 311.188 244.729 298.03C247.52 284.872 246.723 230.247 246.723 230.247L242.337 221.475L183.326 219.083Z" fill="#1F1844"/>
<path d="M223.995 268.923C216.42 276.898 210.04 324.147 210.04 324.147" stroke="white"/>
<path d="M176.348 432.033C176.651 431.778 177.009 431.443 177.4 431.069C179.84 428.716 183.78 424.641 186.714 427.4C190.104 430.59 188.907 440.064 199.075 445.136C202.113 446.659 212.831 453.732 210.04 455.925C207.249 458.118 208.046 457.719 193.293 457.121C178.541 456.523 160.199 445.159 160.199 445.159C160.199 445.159 160.893 430.207 162.193 430.207C163.493 430.207 161.993 435.789 166.18 436.411C170.367 437.033 176.348 432.033 176.348 432.033Z" fill="url(#paint5_linear_3_59)"/>
<path d="M330.256 76.6427C330.152 77.2329 328.063 77.3365 325.072 77.8389C322.082 78.3413 321.38 79.8325 320.287 80.5263C319.195 81.2201 318.493 82.815 319.307 83.2137C320.12 83.6124 323.876 80.5263 324.777 80.5263C325.678 80.5263 326.667 81.8262 326.771 82.3206C326.874 82.815 328.366 84.5136 328.661 86.0048C328.739 86.4062 328.642 86.8221 328.393 87.147C328.145 87.4718 327.769 87.6744 327.361 87.7033V89.7129C327.361 91.1084 325.271 92.799 324.968 93.0064C324.665 93.2137 323.477 92.6077 322.975 91.6029C322.472 90.5981 320.79 93.9952 320.79 93.9952C320.79 93.9952 317.6 97.6874 316.404 100.183C315.606 101.93 312.895 104.226 311.252 105.439C307.423 104.669 303.703 103.432 300.176 101.754C300.606 99.5375 301.5 94.673 301.348 92.9825C301.334 90.928 302.311 88.9926 303.972 87.7831C303.972 87.7831 305.072 82.1611 305.343 82.0415C305.614 81.9218 305.941 77.512 305.383 76.0207C304.825 74.5295 305.957 74.1228 306.539 74.1946C307.925 74.8759 309.066 75.9674 309.809 77.3206C310.479 76.4274 311.819 74.6252 312.114 74.0351C312.512 73.2376 317.098 68.4529 317.496 67.8628C317.895 67.2727 321.085 63.6603 323.078 65.0718C324.131 65.8214 321.882 68.2616 320.686 69.7528C319.49 71.244 313.804 79.6172 314.705 79.8246C315.606 80.0319 319.091 76.0287 320.168 75.3349C320.935 74.6968 321.884 74.3148 322.879 74.2424C325.03 73.9871 327.204 73.9871 329.354 74.2424C330.854 74.4418 330.359 76.0367 330.256 76.6427Z" fill="url(#paint6_linear_3_59)"/>
<path d="M312.114 105.582C311.053 119.402 303.605 150.502 296.699 158.477C289.793 166.451 250.447 152.895 250.447 152.895C250.447 152.895 254.235 229.992 244.131 230.247C234.028 230.502 180.535 223.868 180.535 223.868C180.535 223.868 183.988 201.005 184.697 188.517C185.407 176.029 171.101 135.088 169.107 126.978C167.114 118.868 169.371 109.434 173.095 105.981C176.819 102.528 196.005 98.3892 199.107 98.0782C223.828 95.5981 238.445 113.357 242.265 115.805C249.634 114.402 257.688 112.616 257.688 112.616L257.847 113.413L260.24 124.952L261.037 128.939C269.937 133.006 283.134 136.38 283.134 136.38L288.82 124.075L290.702 120.008L296.882 106.635L299.347 101.292C299.347 101.292 299.634 101.451 300.144 101.707L300.941 102.089C304.232 103.568 307.677 104.675 311.213 105.391L312.114 105.582Z" fill="#2D1582"/>
<path d="M299.952 102.855C299.354 102.855 302.743 103.947 300.152 105.75C299.152 106.307 298.034 106.621 296.89 106.667C293.637 106.978 289.482 106.451 288.493 106.738C287.09 107.137 277.329 113.915 278.222 118.509C280.782 118.509 288.174 118.094 290.71 120.04C291.23 120.391 291.553 120.968 291.579 121.595C291.627 123.27 290.383 123.915 288.828 124.107C287.08 124.2 285.328 124.093 283.605 123.788C281.715 123.589 278.318 123.054 277.121 124.171C275.925 125.287 271.643 126.778 268.453 125.383C266.284 124.434 262.44 124.681 260.216 124.944L257.823 113.405C260.822 111.986 266.037 109.506 267.432 108.732C269.426 107.64 276.507 104.346 278.294 103.453C280.08 102.56 287.066 99.7687 288.262 99.37C289.458 98.9713 301.627 97.5678 302.919 98.2695C303.852 98.7799 302.177 100.957 300.957 102.121C300.685 102.442 300.341 102.693 299.952 102.855Z" fill="url(#paint7_linear_3_59)"/>
<path d="M201.643 101.866C201.468 100.415 201.085 96.6587 200.439 92.2966L199.171 83.7958C199.171 83.5885 199.099 83.3891 199.075 83.1978C198.896 81.8974 198.63 80.6106 198.278 79.3461L198.078 79.1388C192.313 73.445 191.699 68.7719 193.868 66.5311C194.16 66.2355 194.493 65.9831 194.857 65.7815C194.857 65.7815 191.316 57.4322 192.831 49.4498C194.841 38.9075 208.134 34.9681 216.906 34.992C225.678 35.0159 235.622 42.7432 235.439 52.5359C235.359 56.4354 234.641 60.1675 235.168 63.5566C235.694 66.9458 238.605 71.9856 237.616 78.0223C236.22 86.6746 228.573 91.0845 223.533 92.512C222.888 92.6946 222.233 92.8384 221.571 92.9426L221.739 94.37L221.882 95.5423L222.034 96.8022C222.248 97.9695 222.309 99.1597 222.217 100.343C221.516 104.5 218.105 107.665 213.908 108.054C206.491 108.907 202.074 105.391 201.643 101.866Z" fill="url(#paint8_linear_3_59)"/>
<path d="M198.565 69.4737C198.565 69.4737 196.38 67.2169 195.375 69.3142C194.37 71.4115 196.842 74.4019 196.842 74.4019L198.565 69.4737Z" fill="url(#paint9_linear_3_59)"/>
<path d="M202.249 73.4051L202.576 75.7975C208.701 77.2807 223.15 82.4322 225.519 82.1292C228.517 81.7544 228.517 78.1419 230.304 78.4689C232.09 78.7959 232.425 80.8612 233.493 80.5582C234.06 80.3908 237.106 77.201 237.895 75.4147C237.895 75.4147 237.664 81.6188 237.552 82.7273C237.289 85.2951 233.222 91.4992 233.222 91.4992C232.805 92.1897 232.105 92.662 231.308 92.7911L224.315 93.9872L220.328 92.9984C214.841 91.8341 200.958 85.0239 200.527 83.6364C199.756 81.0998 199.28 78.4829 199.107 75.8373L202.249 73.4051Z" fill="#1F1844"/>
<path d="M199.218 84.2185C204.714 91.2625 213.02 95.544 221.946 95.933L221.802 94.7687L221.635 93.3333C215.255 91.8979 207.464 88.0622 198.134 79.5614L198.333 79.7608C198.677 81.0272 198.944 82.3135 199.131 83.6124C199.155 83.8118 199.194 84.0112 199.218 84.2185Z" fill="url(#paint10_linear_3_59)"/>
<path d="M196.874 148.23C192.536 148.493 172.672 134.737 172.672 134.737C172.672 134.737 188.023 150.885 195.455 152.679C202.887 154.474 261.356 129.354 261.356 129.354C261.356 129.354 201.205 147.966 196.874 148.23Z" fill="url(#paint11_linear_3_59)"/>
<path d="M197.186 116.994C197.186 116.994 198.988 122.576 200.782 123.174C202.576 123.772 230.048 118.389 238.142 116.994C239.538 116.754 241.045 116.475 242.576 116.196L202.935 120.327L197.186 116.196" fill="url(#paint12_linear_3_59)"/>
<path opacity="0.5" d="M242.345 75.4306V156.97C242.345 156.97 318.007 178.501 385.885 149.936C385.885 104.673 386.81 57.2488 386.81 57.2488C364.633 94.8006 242.345 75.4306 242.345 75.4306Z" fill="url(#paint13_linear_3_59)"/>
<path opacity="0.5" d="M158.708 208.11L60.5186 191.611V95.933L158.708 102.121V208.11Z" fill="url(#paint14_linear_3_59)"/>
<path opacity="0.5" d="M312.113 266.045L266.771 277.616V213.062L312.113 205.04V266.045Z" fill="url(#paint15_linear_3_59)"/>
<path opacity="0.5" d="M408.445 266.045L363.103 277.616V213.062L408.445 205.04V266.045Z" fill="url(#paint16_linear_3_59)"/>
<path d="M80.4385 185.582L68.7559 183.557V122.201L80.4385 123.365V185.582Z" fill="#E9E8EE"/>
<path d="M101.93 189.322L89.6416 187.185V144.442L101.93 145.957V189.322Z" fill="#E9E8EE"/>
<path d="M124.546 193.254L111.611 191.005V133.7L124.546 135.096V193.254Z" fill="#E9E8EE"/>
<path d="M148.381 197.4L134.745 195.032V115.223L148.381 116.38V197.4Z" fill="#E9E8EE"/>
<path d="M401.914 221.579L394.737 223.325C392.799 223.804 391.316 221.866 391.435 219.003C391.563 216.148 393.246 213.485 395.183 213.062L402.361 211.515C404.203 211.116 405.55 213.03 405.463 215.781C405.343 218.541 403.764 221.132 401.914 221.579Z" fill="#E9E8EE"/>
<path opacity="0.5" d="M404.952 215.901C404.84 218.429 403.357 220.813 401.698 221.22C400.04 221.627 398.684 219.888 398.795 217.321C398.907 214.753 400.39 212.36 402.097 211.986C403.803 211.611 405.103 213.373 404.952 215.901Z" fill="url(#paint17_linear_3_59)"/>
<path d="M401.165 238.939L393.988 241.029C392.05 241.595 390.559 239.737 390.686 236.874C390.806 234.011 392.497 231.292 394.434 230.766L401.611 228.876C403.453 228.389 404.801 230.231 404.721 232.99C404.594 235.742 403.015 238.405 401.165 238.939Z" fill="#E9E8EE"/>
<path opacity="0.5" d="M404.203 233.126C404.091 235.662 402.608 238.102 400.942 238.596C399.275 239.091 397.919 237.408 398.031 234.841C398.142 232.273 399.626 229.809 401.348 229.354C403.071 228.9 404.307 230.598 404.203 233.126Z" fill="url(#paint18_linear_3_59)"/>
<path d="M272.36 219.083L307.177 213.413" stroke="#E8E7ED" stroke-width="4" stroke-linecap="round"/>
<path d="M272.36 229.051L307.177 223.03" stroke="#E8E7ED" stroke-width="4" stroke-linecap="round"/>
<path d="M272.36 239.019L307.177 232.656" stroke="#E8E7ED" stroke-width="4" stroke-linecap="round"/>
<path d="M272.36 248.987L307.177 242.281" stroke="#E8E7ED" stroke-width="4" stroke-linecap="round"/>
<path d="M272.36 258.955L307.177 251.898" stroke="#E8E7ED" stroke-width="4" stroke-linecap="round"/>
<path d="M272.36 268.923L307.177 261.523" stroke="#E8E7ED" stroke-width="4" stroke-linecap="round"/>
<path d="M367.783 217.927L378.732 216.244" stroke="#E8E7ED" stroke-width="4" stroke-linecap="round"/>
<path d="M367.783 225.215L381.499 222.911" stroke="#E8E7ED" stroke-width="4" stroke-linecap="round"/>
<path d="M367.783 232.496L384.258 229.577" stroke="#E8E7ED" stroke-width="4" stroke-linecap="round"/>
<path d="M367.783 239.785L387.026 236.244" stroke="#E8E7ED" stroke-width="4" stroke-linecap="round"/>
<path d="M367.783 247.065L389.785 242.903" stroke="#E8E7ED" stroke-width="4" stroke-linecap="round"/>
<path d="M367.783 254.354L392.544 249.569" stroke="#E8E7ED" stroke-width="4" stroke-linecap="round"/>
<path d="M367.783 261.643L395.311 256.236" stroke="#E8E7ED" stroke-width="4" stroke-linecap="round"/>
<path d="M367.783 268.923L398.07 262.903" stroke="#E8E7ED" stroke-width="4" stroke-linecap="round"/>
<path d="M355.727 122.632C355.727 121.384 356.081 120.148 356.787 118.924C357.494 117.652 358.388 116.704 359.468 116.08C362.212 114.496 364.415 112.48 366.078 110.032C367.741 107.584 368.572 104.8 368.572 101.68C368.572 99.28 367.824 97.72 366.327 97C364.831 96.28 362.96 96.568 360.716 97.864C358.429 99.184 356.413 101.236 354.667 104.02C353.67 105.652 352.63 106.78 351.549 107.404C350.76 107.86 350.053 107.98 349.429 107.764C348.349 107.428 347.808 106.612 347.808 105.316C347.808 104.212 348.203 102.976 348.993 101.608C350.489 98.968 352.235 96.592 354.231 94.48C356.268 92.296 358.429 90.544 360.716 89.224C363.542 87.592 366.12 86.848 368.447 86.992C370.775 87.136 372.625 88.132 373.997 89.98C375.369 91.78 376.055 94.24 376.055 97.36C376.055 101.968 374.911 106.276 372.625 110.284C370.339 114.292 367.304 117.724 363.521 120.58C363.314 120.796 363.21 120.976 363.21 121.12V123.784C363.21 125.032 362.856 126.292 362.15 127.564C361.443 128.788 360.549 129.712 359.468 130.336C358.388 130.96 357.494 131.068 356.787 130.66C356.081 130.204 355.727 129.352 355.727 128.104V122.632ZM359.157 143.404C357.951 144.1 357.016 144.28 356.351 143.944C355.727 143.536 355.415 142.636 355.415 141.244V140.02C355.415 138.628 355.727 137.392 356.351 136.312C357.016 135.16 357.951 134.236 359.157 133.54L359.967 133.072C361.173 132.376 362.087 132.232 362.711 132.64C363.376 132.976 363.708 133.84 363.708 135.232V136.456C363.708 137.848 363.376 139.12 362.711 140.272C362.087 141.352 361.173 142.24 359.967 142.936L359.157 143.404Z" fill="#E8E7ED"/>
<defs>
<linearGradient id="paint0_linear_3_59" x1="0.159587" y1="465.088" x2="499.769" y2="465.088" gradientUnits="userSpaceOnUse">
<stop stop-color="#F0F2F5"/>
<stop offset="0.99" stop-color="#F5F7F8"/>
</linearGradient>
<linearGradient id="paint1_linear_3_59" x1="336.3" y1="149.935" x2="386.818" y2="149.935" gradientUnits="userSpaceOnUse">
<stop stop-color="#A7A5EE"/>
<stop offset="0.44" stop-color="#9D9CE8"/>
<stop offset="0.89" stop-color="#8988D5"/>
</linearGradient>
<linearGradient id="paint2_linear_3_59" x1="161.738" y1="439.378" x2="183.126" y2="439.378" gradientUnits="userSpaceOnUse">
<stop stop-color="#753200"/>
<stop offset="1" stop-color="#A04400"/>
</linearGradient>
<linearGradient id="paint3_linear_3_59" x1="232.322" y1="421.246" x2="218.524" y2="397.193" gradientUnits="userSpaceOnUse">
<stop stop-color="#753200"/>
<stop offset="1" stop-color="#A04400"/>
</linearGradient>
<linearGradient id="paint4_linear_3_59" x1="206.404" y1="445.158" x2="261.85" y2="445.158" gradientUnits="userSpaceOnUse">
<stop stop-color="#A7A5EE"/>
<stop offset="0.44" stop-color="#9D9CE8"/>
<stop offset="0.89" stop-color="#8988D5"/>
</linearGradient>
<linearGradient id="paint5_linear_3_59" x1="160.199" y1="457.59" x2="210.494" y2="457.59" gradientUnits="userSpaceOnUse">
<stop stop-color="#A7A5EE"/>
<stop offset="0.44" stop-color="#9D9CE8"/>
<stop offset="0.89" stop-color="#8988D5"/>
</linearGradient>
<linearGradient id="paint6_linear_3_59" x1="300.176" y1="105.433" x2="330.415" y2="105.433" gradientUnits="userSpaceOnUse">
<stop stop-color="#753200"/>
<stop offset="1" stop-color="#A04400"/>
</linearGradient>
<linearGradient id="paint7_linear_3_59" x1="257.847" y1="125.945" x2="303.214" y2="125.945" gradientUnits="userSpaceOnUse">
<stop stop-color="#753200"/>
<stop offset="1" stop-color="#A04400"/>
</linearGradient>
<linearGradient id="paint8_linear_3_59" x1="257.881" y1="29.8721" x2="199.825" y2="26.5085" gradientUnits="userSpaceOnUse">
<stop stop-color="#753200"/>
<stop offset="1" stop-color="#A04400"/>
</linearGradient>
<linearGradient id="paint9_linear_3_59" x1="195.43" y1="71.9202" x2="198.606" y2="72.4797" gradientUnits="userSpaceOnUse">
<stop stop-color="#753200"/>
<stop offset="1" stop-color="#A04400"/>
</linearGradient>
<linearGradient id="paint10_linear_3_59" x1="190.549" y1="90.2306" x2="206.823" y2="108.689" gradientUnits="userSpaceOnUse">
<stop stop-color="#A04400"/>
<stop offset="1" stop-color="#753200"/>
</linearGradient>
<linearGradient id="paint11_linear_3_59" x1="172.672" y1="152.777" x2="261.356" y2="152.777" gradientUnits="userSpaceOnUse">
<stop offset="0.01" stop-color="#2D1582"/>
<stop offset="1" stop-color="#4822D1"/>
</linearGradient>
<linearGradient id="paint12_linear_3_59" x1="197.186" y1="123.217" x2="242.576" y2="123.217" gradientUnits="userSpaceOnUse">
<stop offset="0.01" stop-color="#2D1582"/>
<stop offset="1" stop-color="#4822D1"/>
</linearGradient>
<linearGradient id="paint13_linear_3_59" x1="242.345" y1="164.759" x2="386.818" y2="164.759" gradientUnits="userSpaceOnUse">
<stop stop-color="#A7A5EE"/>
<stop offset="0.44" stop-color="#9D9CE8"/>
<stop offset="0.89" stop-color="#8988D5"/>
</linearGradient>
<linearGradient id="paint14_linear_3_59" x1="60.5186" y1="208.106" x2="158.708" y2="208.106" gradientUnits="userSpaceOnUse">
<stop stop-color="#A7A5EE"/>
<stop offset="0.44" stop-color="#9D9CE8"/>
<stop offset="0.89" stop-color="#8988D5"/>
</linearGradient>
<linearGradient id="paint15_linear_3_59" x1="266.771" y1="277.612" x2="312.113" y2="277.612" gradientUnits="userSpaceOnUse">
<stop stop-color="#A7A5EE"/>
<stop offset="0.44" stop-color="#9D9CE8"/>
<stop offset="0.89" stop-color="#8988D5"/>
</linearGradient>
<linearGradient id="paint16_linear_3_59" x1="363.103" y1="277.612" x2="408.445" y2="277.612" gradientUnits="userSpaceOnUse">
<stop stop-color="#A7A5EE"/>
<stop offset="0.44" stop-color="#9D9CE8"/>
<stop offset="0.89" stop-color="#8988D5"/>
</linearGradient>
<linearGradient id="paint17_linear_3_59" x1="399.839" y1="219.931" x2="405.934" y2="220.038" gradientUnits="userSpaceOnUse">
<stop stop-color="#A7A5EE"/>
<stop offset="0.44" stop-color="#9D9CE8"/>
<stop offset="0.89" stop-color="#8988D5"/>
</linearGradient>
<linearGradient id="paint18_linear_3_59" x1="399.145" y1="237.345" x2="405.24" y2="237.451" gradientUnits="userSpaceOnUse">
<stop stop-color="#A7A5EE"/>
<stop offset="0.44" stop-color="#9D9CE8"/>
<stop offset="0.89" stop-color="#8988D5"/>
</linearGradient>
</defs>
</svg>
