<svg width="1478" height="355" viewBox="0 0 1478 355" fill="none" xmlns="http://www.w3.org/2000/svg">
<path opacity="0.1" fill-rule="evenodd" clip-rule="evenodd" d="M0.5 266.5L35.5 222.5C70.5 177.5 141.5 89.5 211.5 96.5C281.5 103.5 352.5 207.5 422.5 273.5C492.5 340.5 563.5 369.5 633.5 347.5C703.5 325.5 774.5 251.5 844.5 214.5C914.5 177.5 985.5 177.5 1055.5 185.5C1125.5 192.5 1183.5 231.5 1253.5 216.5C1323.5 201.5 1345 210.5 1364 216.5L1477.5 266.5V0.5H1442.5C1407.5 0.5 1336.5 0.5 1266.5 0.5C1196.5 0.5 1125.5 0.5 1055.5 0.5C985.5 0.5 914.5 0.5 844.5 0.5C774.5 0.5 703.5 0.5 633.5 0.5C563.5 0.5 492.5 0.5 422.5 0.5C352.5 0.5 281.5 0.5 211.5 0.5C141.5 0.5 70.5 0.5 35.5 0.5H0.5V266.5Z" fill="#703AA3"/>
</svg>
