<svg width="1440" height="340" viewBox="0 0 1440 340" fill="none" xmlns="http://www.w3.org/2000/svg">
<path opacity="0.1" fill-rule="evenodd" clip-rule="evenodd" d="M-40 43.5071L-4.23333 87.0142C30.3 130.521 100.6 217.536 170.9 275.545C242.433 333.555 312.733 362.559 383.033 319.052C453.333 275.545 523.633 159.526 593.933 130.521C664.233 101.517 735.767 159.526 806.067 152.275C876.367 145.024 946.667 72.5118 1016.97 79.763C1087.27 87.0142 1157.57 174.028 1229.1 217.536C1299.4 261.043 1369.7 261.043 1404.23 261.043H1440V0H1404.23C1369.7 0 1299.4 0 1229.1 0C1157.57 0 1087.27 0 1016.97 0C946.667 0 876.367 0 806.067 0C735.767 0 664.233 0 593.933 0C523.633 0 453.333 0 383.033 0C312.733 0 242.433 0 170.9 0C100.6 0 30.3 0 -4.23333 0H-40V43.5071Z" fill="#703AA3"/>
</svg>
